<svg width="8" height="14" viewBox="0 0 8 14" fill="none" xmlns="http://www.w3.org/2000/svg">
<path d="M6.41724 13.7235L0.321254 7.72125C0.109696 7.50829 0 7.27167 0 6.99561C0 6.71955 0.109696 6.46715 0.329089 6.26208L6.42507 0.267682C6.59745 0.0941601 6.81685 -0.000488281 7.06758 -0.000488281C7.59256 -0.000488281 8 0.409655 8 0.930221C8 1.18262 7.89814 1.42713 7.71792 1.60854L2.2331 6.98772L7.71792 12.3827C7.89814 12.5641 8 12.8007 8 13.061C8 13.5816 7.59256 13.9917 7.06758 13.9917C6.81685 13.9917 6.59745 13.8971 6.41724 13.7235Z" fill="#516173"/>
</svg>
