<svg width="11" height="12" viewBox="0 0 11 12" fill="none" xmlns="http://www.w3.org/2000/svg">
<path d="M10.0187 2.44288L7.71099 0.135188C7.62443 0.0486292 7.50703 8.15504e-07 7.38461 0H2.76923C2.5245 0.000279887 2.28988 0.0976223 2.11683 0.270672C1.94378 0.443722 1.84643 0.678348 1.84615 0.923077V1.84615H0.923077C0.678348 1.84643 0.443722 1.94378 0.270672 2.11683C0.0976223 2.28988 0.000279887 2.5245 0 2.76923V11.0769C0.000279887 11.3217 0.0976223 11.5563 0.270672 11.7293C0.443722 11.9024 0.678348 11.9997 0.923077 12H7.38461C7.62934 11.9997 7.86397 11.9024 8.03702 11.7293C8.21007 11.5563 8.30741 11.3217 8.30769 11.0769V10.1538H9.23077C9.4755 10.1536 9.71012 10.0562 9.88317 9.88317C10.0562 9.71012 10.1536 9.4755 10.1538 9.23077V2.76923C10.1538 2.64683 10.1052 2.52944 10.0187 2.44288ZM5.53846 9.69231H2.76923C2.64682 9.69231 2.52943 9.64368 2.44287 9.55713C2.35632 9.47057 2.30769 9.35318 2.30769 9.23077C2.30769 9.10836 2.35632 8.99097 2.44287 8.90441C2.52943 8.81786 2.64682 8.76923 2.76923 8.76923H5.53846C5.66087 8.76923 5.77826 8.81786 5.86482 8.90441C5.95137 8.99097 6 9.10836 6 9.23077C6 9.35318 5.95137 9.47057 5.86482 9.55713C5.77826 9.64368 5.66087 9.69231 5.53846 9.69231ZM5.53846 7.84615H2.76923C2.64682 7.84615 2.52943 7.79753 2.44287 7.71097C2.35632 7.62442 2.30769 7.50702 2.30769 7.38462C2.30769 7.26221 2.35632 7.14481 2.44287 7.05826C2.52943 6.9717 2.64682 6.92308 2.76923 6.92308H5.53846C5.66087 6.92308 5.77826 6.9717 5.86482 7.05826C5.95137 7.14481 6 7.26221 6 7.38462C6 7.50702 5.95137 7.62442 5.86482 7.71097C5.77826 7.79753 5.66087 7.84615 5.53846 7.84615ZM9.23077 9.23077H8.30769V4.61538C8.30769 4.49298 8.25908 4.37559 8.17253 4.28903L5.86484 1.98134C5.77828 1.89478 5.66088 1.84615 5.53846 1.84615H2.76923V0.923077H7.19345L9.23077 2.96042V9.23077Z" fill="#24A4FF"/>
</svg>
