<svg width="16" height="16" viewBox="0 0 16 16" fill="none" xmlns="http://www.w3.org/2000/svg">
<path fill-rule="evenodd" clip-rule="evenodd" d="M1.75 7.12503C1.75 4.15648 4.15648 1.75 7.12503 1.75C10.0936 1.75 12.5001 4.15648 12.5001 7.12503C12.5001 8.60331 11.9033 9.9422 10.9375 10.9139C10.9335 10.9178 10.9295 10.9217 10.9255 10.9257C10.9215 10.9297 10.9176 10.9337 10.9137 10.9377C9.94201 11.9034 8.6032 12.5001 7.12503 12.5001C4.15648 12.5001 1.75 10.0936 1.75 7.12503ZM11.4271 12.488C10.2493 13.434 8.75327 14.0001 7.12503 14.0001C3.32806 14.0001 0.25 10.922 0.25 7.12503C0.25 3.32806 3.32806 0.25 7.12503 0.25C10.922 0.25 14.0001 3.32806 14.0001 7.12503C14.0001 8.7534 13.4339 10.2495 12.4878 11.4274L15.53 14.4695C15.8228 14.7624 15.8228 15.2373 15.53 15.5302C15.2371 15.8231 14.7622 15.8231 14.4693 15.5302L11.4271 12.488Z" fill="#7F8FA4"/>
</svg>
