<svg width="83" height="36" viewBox="0 0 83 36" fill="none" xmlns="http://www.w3.org/2000/svg">
<rect x="8.81226" y="5.81244" width="19.3125" height="24.1875" fill="white"/>
<path fill-rule="evenodd" clip-rule="evenodd" d="M41.2493 24.6959C40.5558 24.7585 39.992 25.0284 39.7156 25.4301C39.4455 25.8226 39.3698 26.094 39.1166 27.577C39.0707 27.8459 39.019 28.1382 38.916 28.7122C38.8876 28.87 38.8584 29.0384 38.851 29.0865C38.8436 29.1345 38.8139 29.2917 38.785 29.4358C38.7077 29.8211 38.7093 30.3833 38.7883 30.6064C38.9303 31.0077 39.214 31.2434 39.7273 31.3866C39.9119 31.4381 39.9796 31.4423 40.6256 31.4426C41.3854 31.443 41.7312 31.4064 42.2713 31.2684C42.6541 31.1707 42.6384 31.1843 42.6875 30.9078C42.849 29.9983 43.1082 28.4936 43.1082 28.465C43.1082 28.447 43.0166 28.4378 42.8374 28.4378H42.5665L42.526 28.6561C42.5037 28.7762 42.4627 29.0035 42.435 29.1613C42.3676 29.5453 42.2929 29.9653 42.2353 30.2841C42.2093 30.4282 42.1808 30.5932 42.1721 30.6507C42.1633 30.7082 42.143 30.766 42.1269 30.7791C42.0883 30.8106 41.5831 30.9073 41.3133 30.9349C40.8247 30.9848 40.5057 30.9888 40.2221 30.9484C39.7377 30.8794 39.5123 30.7588 39.3783 30.4971C39.3093 30.3624 39.3025 30.3259 39.2948 30.0526C39.2867 29.7675 39.3075 29.5909 39.4155 29.0241C39.4286 28.9555 39.4616 28.7702 39.4888 28.6124C39.516 28.4546 39.555 28.23 39.5755 28.1134C39.614 27.8947 39.767 27.0281 39.8177 26.7411C39.9285 26.1144 40.0599 25.8001 40.3164 25.5482C40.5976 25.272 41.1206 25.1481 41.8856 25.1766C42.3192 25.1927 42.5101 25.2167 43.0343 25.3214C43.2338 25.3612 43.4136 25.3938 43.4337 25.3938C43.4591 25.3938 43.4838 25.3341 43.5139 25.2004C43.5755 24.9259 43.578 24.9336 43.4138 24.8883C42.7967 24.7182 41.8928 24.6379 41.2493 24.6959ZM55.6584 24.6964C54.8644 24.76 54.2805 25.0604 53.9529 25.5739C53.7531 25.8871 53.6425 26.2237 53.5244 26.8783C53.4774 27.1391 53.4272 27.4141 53.4128 27.4896C53.3984 27.5651 53.3471 27.8514 53.2989 28.1259C53.1501 28.9713 53.138 29.0403 53.0853 29.336C52.8702 30.5427 53.2898 31.2162 54.3824 31.4182C54.6947 31.476 55.3985 31.4705 55.7614 31.4074C56.3909 31.2982 56.8405 31.063 57.1404 30.6862C57.4325 30.3192 57.5588 29.9964 57.6783 29.311C57.7082 29.1395 57.7534 28.8869 57.7787 28.7496C57.8039 28.6124 57.8489 28.3598 57.8785 28.1882C57.9309 27.8853 57.9813 27.6077 58.0651 27.1599C58.1797 26.5479 58.2025 26.2395 58.1519 25.9876C58.0535 25.4981 57.7542 25.1179 57.2927 24.8964C56.8783 24.6974 56.391 24.6378 55.6584 24.6964ZM47.4875 24.8261C47.4805 24.857 47.4572 24.9833 47.4358 25.1068C47.4144 25.2303 47.3756 25.4549 47.3495 25.6058C47.3047 25.8646 47.0503 27.312 46.9635 27.8015C46.9416 27.925 46.9017 28.1524 46.8747 28.3068C46.8478 28.4612 46.8038 28.7138 46.7769 28.8682C46.75 29.0226 46.7106 29.2499 46.6893 29.3734C46.6681 29.4969 46.6343 29.6878 46.6143 29.7976C46.5726 30.0267 46.5034 30.4139 46.4272 30.8455C46.3981 31.0102 46.372 31.1954 46.3693 31.2572L46.3642 31.3695L48.1036 31.3759C50.0827 31.3832 49.875 31.4097 49.9047 31.146C49.9139 31.0642 49.9278 30.9716 49.9357 30.9401L49.9501 30.8829H48.4767C47.6103 30.8829 46.9976 30.8735 46.9893 30.8601C46.9815 30.8475 47.0266 30.5471 47.0894 30.1926C47.1522 29.8381 47.2132 29.4919 47.225 29.4233C47.2448 29.3083 47.3067 28.9602 47.5773 27.4397C47.6323 27.131 47.687 26.8222 47.6989 26.7536C47.7108 26.685 47.7727 26.3369 47.8365 25.9801C47.9003 25.6233 47.9683 25.2359 47.9876 25.1193C48.0069 25.0027 48.0294 24.8764 48.0375 24.8386L48.0524 24.77H47.7764C47.5107 24.77 47.5 24.7721 47.4875 24.8261ZM62.0975 24.8619C62.0829 24.9143 62.071 24.9796 62.0709 25.007C62.0708 25.0345 62.0541 25.1368 62.0337 25.2343C62.0134 25.332 61.9858 25.4835 61.9725 25.5712C61.9592 25.6589 61.9251 25.8597 61.8967 26.0175C61.8684 26.1753 61.8178 26.4617 61.7844 26.6538C61.7509 26.8459 61.7056 27.1041 61.6837 27.2276C61.6618 27.3511 61.6227 27.5757 61.5967 27.7267C61.5708 27.8776 61.526 28.1302 61.4971 28.288C61.4683 28.4459 61.4344 28.6424 61.4217 28.7247C61.409 28.807 61.3864 28.9361 61.3715 29.0116C61.3566 29.0871 61.3232 29.2724 61.2973 29.4233C61.2413 29.7493 61.1682 30.1636 61.0971 30.5586C61.0167 31.0045 60.989 31.1874 60.9871 31.2821L60.9854 31.3695L62.2205 31.3767C63.5461 31.3844 63.9958 31.3636 64.2912 31.281C64.7466 31.1536 65.0232 30.895 65.1804 30.4496C65.2139 30.3546 65.3512 29.6434 65.4155 29.2313C65.432 29.1257 65.4405 28.9443 65.4345 28.8283C65.4141 28.4411 65.236 28.1865 64.8863 28.045C64.7927 28.0072 64.7167 27.9706 64.7174 27.9637C64.718 27.9568 64.8105 27.9072 64.9229 27.8534C65.0686 27.7836 65.1706 27.7119 65.2782 27.6038C65.4994 27.3816 65.5614 27.2263 65.6626 26.6413C65.6899 26.4835 65.7304 26.2533 65.7527 26.1298C65.8766 25.4417 65.6659 25.0313 65.0898 24.8388C64.9325 24.7862 64.8858 24.7843 63.5258 24.7756L62.1239 24.7667L62.0975 24.8619ZM71.411 24.8006C71.3842 24.843 71.3219 24.9633 70.917 25.7555C70.7276 26.1261 70.48 26.6089 70.3669 26.8284C70.1022 27.3421 69.7599 28.0089 69.4061 28.6997C69.2515 29.0016 69.0495 29.3946 68.9572 29.573C68.3402 30.7656 68.0575 31.3345 68.0712 31.3566C68.0891 31.3855 68.5568 31.3911 68.5956 31.3629C68.6094 31.3528 68.6501 31.2884 68.6861 31.2198C68.8154 30.9728 69.0566 30.5156 69.2061 30.2342C69.29 30.0764 69.3942 29.8771 69.4377 29.7913L69.5168 29.6354H71.019H72.5212L72.5356 29.704C72.5575 29.8078 72.7668 31.0762 72.7868 31.2261C72.8078 31.3833 72.817 31.3872 73.1365 31.3768C73.343 31.3701 73.3608 31.3655 73.3583 31.3196C73.3531 31.2224 73.3335 31.1044 72.7472 27.6393C72.6648 27.1522 72.5879 26.6918 72.5763 26.6163C72.5648 26.5409 72.5377 26.3781 72.5163 26.2546C72.4948 26.1311 72.4531 25.884 72.4235 25.7056C72.3939 25.5272 72.3456 25.2465 72.3161 25.0819L72.2625 24.7825L71.8467 24.7756C71.5311 24.7704 71.4262 24.7764 71.411 24.8006ZM77.7393 24.834C77.7259 24.8692 77.7149 24.9204 77.7149 24.9477C77.7149 24.975 77.7044 25.0445 77.6916 25.102C77.6788 25.1595 77.6453 25.3386 77.6173 25.4999C77.5892 25.6612 77.5433 25.9251 77.5153 26.0862C77.4873 26.2474 77.4542 26.4355 77.4418 26.5041C77.4293 26.5727 77.4057 26.7074 77.3893 26.8035C77.3729 26.8995 77.3441 27.0587 77.3253 27.1573C77.3065 27.2558 77.2803 27.4073 77.2671 27.4941C77.2539 27.5808 77.2195 27.7809 77.1907 27.9387C77.1619 28.0966 77.116 28.3548 77.0887 28.5126C77.0002 29.0251 76.9425 29.3552 76.889 29.6541C76.8601 29.8154 76.8312 29.981 76.8246 30.0221C76.8181 30.0633 76.796 30.1868 76.7756 30.2966C76.7551 30.4064 76.7285 30.5579 76.7164 30.6334C76.7043 30.7089 76.6826 30.8352 76.6682 30.9141C76.5955 31.3128 76.5926 31.3418 76.6238 31.3617C76.6407 31.3724 77.4258 31.3814 78.3684 31.3816C79.6772 31.3818 80.0867 31.3749 80.1008 31.3519C80.1198 31.3212 80.1814 31.0054 80.1837 30.9266C80.185 30.8855 80.0989 30.8829 78.7144 30.8829C77.9056 30.8829 77.2386 30.8745 77.2322 30.8642C77.2258 30.8539 77.2525 30.6658 77.2914 30.4462C77.3303 30.2267 77.4142 29.7552 77.4777 29.3984C77.5413 29.0416 77.6086 28.6598 77.6272 28.55C77.6459 28.4402 77.7133 28.0585 77.7771 27.7017C77.8409 27.3449 77.9027 26.9968 77.9145 26.9282C77.9263 26.8596 77.9712 26.607 78.0143 26.3668C78.0574 26.1267 78.1024 25.8741 78.1141 25.8054C78.1259 25.7368 78.17 25.4872 78.2122 25.2508C78.2543 25.0144 78.2888 24.8095 78.2888 24.7955C78.2888 24.7797 78.1883 24.77 78.0262 24.77C77.7673 24.77 77.7633 24.7709 77.7393 24.834ZM71.8264 25.1131C71.8263 25.1233 71.8481 25.2721 71.8749 25.4437C71.9017 25.6152 71.9459 25.9071 71.9733 26.0924C72.0006 26.2776 72.0298 26.4741 72.0381 26.529C72.1486 27.2566 72.1996 27.5975 72.3011 28.288C72.3283 28.4733 72.3672 28.7316 72.3875 28.8619C72.4078 28.9923 72.4247 29.1074 72.4249 29.1177C72.4252 29.1279 71.8351 29.1364 71.1136 29.1364C70.0067 29.1364 69.8031 29.131 69.8099 29.1017C69.826 29.0327 71.7893 25.0943 71.8077 25.0943C71.8181 25.0943 71.8265 25.1028 71.8264 25.1131ZM56.7629 25.2282C56.9663 25.2798 57.207 25.3978 57.3232 25.5028C57.3778 25.5521 57.4566 25.6572 57.4983 25.7364C57.6466 26.0177 57.6633 26.2845 57.5667 26.8284C57.5325 27.0205 57.4928 27.2507 57.4783 27.3399C57.4639 27.4291 57.4414 27.5498 57.4284 27.6081C57.4154 27.6664 57.3941 27.7843 57.381 27.8701C57.368 27.9559 57.3348 28.1496 57.3074 28.3005C57.2799 28.4515 57.2132 28.822 57.1591 29.1239C57.0434 29.7702 56.964 30.0274 56.805 30.2709C56.553 30.6569 56.1656 30.8652 55.5484 30.9467C55.2109 30.9912 54.9715 30.9913 54.6479 30.9471C54.1088 30.8734 53.8216 30.7049 53.6719 30.3744C53.6115 30.241 53.6016 30.184 53.5932 29.9223C53.5869 29.7264 53.5967 29.5453 53.6215 29.3984C53.6683 29.1217 53.7684 28.5527 53.9245 27.6768C53.9465 27.5532 53.9857 27.3287 54.0116 27.1777C54.1383 26.4392 54.2046 26.2007 54.3548 25.9431C54.5962 25.5293 54.9941 25.2899 55.5981 25.1952C55.8111 25.1618 56.5883 25.1838 56.7629 25.2282ZM64.8834 25.3046C65.1815 25.4108 65.2834 25.6297 65.2151 26.0175C65.2018 26.093 65.1687 26.2839 65.1416 26.4417C65.058 26.9293 65.0412 26.998 64.9666 27.1574C64.8402 27.4273 64.5978 27.611 64.2504 27.6999C64.124 27.7322 63.928 27.7391 63.1338 27.7391C62.1847 27.7391 62.1706 27.7384 62.1706 27.6888C62.1706 27.6612 62.2216 27.3496 62.284 26.9964C62.3928 26.3814 62.4442 26.0881 62.5342 25.5684C62.598 25.2005 62.4556 25.2398 63.688 25.2496C64.6503 25.2573 64.7656 25.2626 64.8834 25.3046ZM64.4112 28.2987C64.5792 28.3592 64.7451 28.5048 64.8182 28.6558C64.8881 28.8001 64.8921 29.0578 64.8299 29.3984C64.8074 29.5219 64.7725 29.7184 64.7524 29.835C64.7057 30.1059 64.6469 30.323 64.5904 30.4338C64.5328 30.5465 64.3783 30.7006 64.264 30.7592C64.0446 30.8717 63.904 30.8829 62.7159 30.8829H61.5927L61.6075 30.8143C61.6156 30.7766 61.6831 30.3976 61.7575 29.9722C61.8319 29.5468 61.9281 28.9967 61.9713 28.7496C62.0145 28.5026 62.0543 28.2861 62.0599 28.2684C62.0679 28.2426 62.2896 28.2377 63.1744 28.2436C64.1872 28.2505 64.2899 28.2551 64.4112 28.2987Z" fill="white"/>
<path fill-rule="evenodd" clip-rule="evenodd" d="M16.9597 0.0325666C15.382 0.117674 13.8335 0.412567 12.3142 0.917247C11.869 1.06516 11.7672 1.10253 11.2459 1.30935C8.89986 2.24026 6.66184 3.77898 4.84605 5.70952C2.64591 8.04869 1.07833 11.0359 0.401962 14.1784C-0.311606 17.4937 -0.0701813 21.0209 1.08681 24.1836C1.85864 26.2935 3.00945 28.2186 4.53237 29.9473C4.78734 30.2367 5.58886 31.0534 5.84408 31.2838C6.70598 32.0619 7.65296 32.774 8.60114 33.3569C9.5003 33.9097 10.6071 34.4564 11.5453 34.8112C14.4929 35.9257 17.62 36.2623 20.7023 35.7967C21.8918 35.6171 23.3247 35.2458 24.3134 34.8611C24.8433 34.6549 24.8265 34.6617 25.0746 34.5527C25.1397 34.5242 25.1976 34.5008 25.2033 34.5008C25.2401 34.5008 26.2161 34.0226 26.5636 33.8343C28.8699 32.5847 30.9086 30.8067 32.4942 28.6623C32.8544 28.1751 33.027 27.9147 33.503 27.1403C33.5409 27.0786 33.6306 26.9214 33.7023 26.791C33.7739 26.6606 33.8641 26.497 33.9027 26.4273C34.0373 26.1841 34.1978 25.8551 34.4128 25.3813C34.7086 24.7292 34.9825 24.0028 35.1934 23.3104C35.2227 23.2143 35.2638 23.0796 35.2848 23.011C35.4102 22.6009 35.6044 21.7704 35.6962 21.2519C35.7813 20.7712 35.7964 20.6764 35.8353 20.3787C35.975 19.3108 36.0307 17.9922 35.972 17.1387C35.9196 16.376 35.8946 16.0695 35.8718 15.9125C35.8589 15.8233 35.8367 15.6548 35.8225 15.5382C35.7853 15.2332 35.6393 14.4039 35.5743 14.1285C35.5613 14.0736 35.5271 13.9276 35.4982 13.8041C35.3427 13.1392 34.9884 11.9877 34.8227 11.6084C34.8107 11.581 34.7741 11.4856 34.7413 11.3964C34.7085 11.3072 34.6591 11.1837 34.6314 11.1219C34.6038 11.0601 34.536 10.903 34.4808 10.7726C34.0437 9.74085 33.3284 8.49069 32.5891 7.46661C31.2518 5.61404 29.5265 3.99455 27.5735 2.75854C26.5746 2.12639 25.553 1.62014 24.2827 1.12781C23.8198 0.948386 22.7221 0.615143 22.1993 0.495304C20.9667 0.212736 20.1097 0.0899781 18.9557 0.0306949C18.1493 -0.0107234 17.7556 -0.0103488 16.9597 0.0325666ZM45.7778 5.17353C44.7539 5.22912 44.1862 5.30752 43.5323 5.48369C42.2563 5.82739 41.2745 6.50433 40.6564 7.46661C40.3075 8.00976 40.022 8.74174 39.8681 9.48762C39.8199 9.72114 39.792 9.87563 39.6642 10.6166C39.6365 10.7779 39.5912 11.0389 39.5638 11.1968C39.4852 11.6486 39.4177 12.0384 39.3759 12.2821C39.3547 12.4056 39.3164 12.6246 39.2908 12.7687C39.2652 12.9127 39.2203 13.171 39.191 13.3425C39.1617 13.5141 39.1159 13.7779 39.0892 13.9289C39.0624 14.0798 38.984 14.5289 38.9149 14.9269C38.8458 15.3249 38.7665 15.7796 38.7388 15.9374C38.7111 16.0952 38.678 16.2945 38.6652 16.3803C38.6525 16.4661 38.6314 16.584 38.6184 16.6423C38.5673 16.8701 38.5113 17.4627 38.5116 17.7713C38.5131 19.2463 39.1831 20.3355 40.4745 20.962C41.176 21.3023 41.8343 21.4601 42.9834 21.5636C43.2098 21.5839 43.5971 21.6005 43.8442 21.6004C44.3912 21.6001 45.5124 21.5226 45.9899 21.4521C46.086 21.4379 46.2207 21.4201 46.2893 21.4125C46.3579 21.405 46.459 21.3889 46.5139 21.3769C46.5688 21.3649 46.6867 21.3424 46.7759 21.3268C47.1048 21.2694 47.6624 21.1392 48.0109 21.0383C48.3912 20.9283 48.486 20.8987 48.6971 20.8241C49.3189 20.6045 49.3957 20.5615 49.3957 20.4332C49.3957 20.3977 49.4176 20.2558 49.4443 20.1179C49.4711 19.98 49.5164 19.7324 49.545 19.5677C49.5972 19.2672 49.6566 18.9376 49.7338 18.5198C49.7566 18.3963 49.7848 18.2335 49.7964 18.158C49.8081 18.0826 49.8402 17.8973 49.8678 17.7463C49.8954 17.5954 49.9459 17.3147 49.98 17.1226C50.0488 16.735 50.0979 16.4599 50.1715 16.0497C50.1986 15.8987 50.242 15.6517 50.268 15.5008C50.294 15.3498 50.339 15.0972 50.3681 14.9394C50.3972 14.7816 50.4312 14.5907 50.4436 14.5152C50.4561 14.4397 50.4785 14.3162 50.4934 14.2408C50.5083 14.1653 50.5271 14.0446 50.5351 13.9725L50.5496 13.8415H48.9183H47.287L47.2283 14.1597C47.1081 14.8107 47.0764 14.9836 47.0265 15.2575C46.9985 15.4119 46.9535 15.6589 46.9266 15.8064C46.8997 15.9539 46.8555 16.1981 46.8285 16.3491C46.8015 16.5 46.7559 16.7527 46.7271 16.9105C46.6983 17.0683 46.6578 17.2929 46.6369 17.4095C46.6161 17.5261 46.5835 17.7058 46.5646 17.8087C46.5456 17.9116 46.5227 18.0436 46.5136 18.102C46.4997 18.1909 46.4863 18.2103 46.4306 18.2219C46.3941 18.2295 46.3193 18.2466 46.2644 18.2598C46.2095 18.2731 46.0523 18.3007 45.9151 18.3213C44.9326 18.4687 44.0909 18.5173 43.6084 18.4547C42.7712 18.3459 42.3353 18.025 42.1734 17.398C42.1469 17.2952 42.135 17.1294 42.135 16.8603C42.135 16.4556 42.1509 16.3324 42.3342 15.3136C42.3774 15.0735 42.4576 14.6244 42.5124 14.3156C42.5672 14.0068 42.6331 13.6363 42.6587 13.4922C42.6844 13.3481 42.7292 13.0955 42.7581 12.9308C42.7871 12.7662 42.8269 12.5416 42.8466 12.4318C42.8663 12.322 42.9111 12.0694 42.9463 11.8704C42.9814 11.6714 43.0262 11.4188 43.0458 11.309C43.0653 11.1992 43.1051 10.9747 43.1342 10.81C43.2751 10.0114 43.3903 9.65235 43.6189 9.29897C43.9861 8.73122 44.5008 8.45426 45.3786 8.35191C45.9791 8.2819 47.4392 8.37287 48.6472 8.55554C49.2485 8.64648 49.9267 8.77722 50.244 8.8634C50.4462 8.91832 50.4856 8.91358 50.5007 8.83267C50.5078 8.79491 50.5377 8.67423 50.5673 8.56444C50.5968 8.45466 50.63 8.32554 50.6411 8.27751C50.6523 8.22948 50.6917 8.0779 50.7288 7.94067C50.8336 7.55251 50.8804 7.37541 51.0023 6.90522C51.0645 6.66506 51.1437 6.36191 51.1783 6.23154C51.2622 5.91492 51.2624 5.91597 51.136 5.88647C51.0777 5.87285 50.856 5.81689 50.6432 5.76209C49.6435 5.50455 48.297 5.28326 47.2874 5.21053C46.8881 5.18179 46.0186 5.16046 45.7778 5.17353ZM55.0727 5.43936C55.067 5.45652 55.0445 5.57721 55.0226 5.70758C54.9688 6.02849 54.8617 6.64218 54.6721 7.71612C54.6091 8.07291 54.5422 8.45466 54.5234 8.56444C54.5046 8.67423 54.4664 8.89317 54.4385 9.05099C54.3551 9.52338 54.3117 9.77169 54.2596 10.074C54.2324 10.2318 54.1996 10.417 54.1867 10.4857C54.163 10.6118 54.1038 10.9463 54.0123 11.4712C53.9848 11.629 53.9396 11.8873 53.9118 12.0451C53.7243 13.1106 53.5688 13.9982 53.4638 14.6025C53.4089 14.9182 53.3526 15.2382 53.3386 15.3136C53.3108 15.463 53.2477 15.8227 53.1635 16.3117C53.1078 16.6354 53.0532 16.9444 52.9653 17.4345C52.937 17.5923 52.8965 17.8224 52.8753 17.9459C52.8541 18.0695 52.82 18.2659 52.7994 18.3826C52.7789 18.4992 52.7405 18.7182 52.7142 18.8691C52.6534 19.2169 52.5976 19.5344 52.5496 19.8048C52.4187 20.5423 52.29 21.2934 52.29 21.3203C52.29 21.3456 53.2648 21.3506 57.2361 21.3455L62.1823 21.3393L62.2014 21.202C62.2118 21.1266 62.2367 20.975 62.2566 20.8652C62.2766 20.7554 62.3163 20.5252 62.3448 20.3537C62.3734 20.1822 62.418 19.9183 62.444 19.7674C62.47 19.6164 62.514 19.3582 62.5417 19.1935C62.5693 19.0288 62.615 18.7639 62.6432 18.6048C62.6714 18.4457 62.6945 18.3026 62.6945 18.2867C62.6945 18.265 61.9018 18.2578 59.5008 18.2578C56.3391 18.2578 56.3071 18.2573 56.3071 18.2086C56.3071 18.1816 56.3234 18.0777 56.3434 17.9778C56.3634 17.878 56.4032 17.6615 56.4319 17.4968C56.4605 17.3322 56.5051 17.0795 56.5309 16.9354C56.5567 16.7913 56.6005 16.5443 56.6282 16.3865C56.6559 16.2287 56.7137 15.9031 56.7568 15.6629C56.7999 15.4228 56.8504 15.1365 56.8691 15.0267C56.8879 14.9169 56.949 14.5689 57.005 14.2532C57.061 13.9376 57.1285 13.5559 57.155 13.4049C57.1816 13.2539 57.2266 13.0013 57.2551 12.8435C57.2837 12.6857 57.318 12.4892 57.3314 12.4069C57.3449 12.3245 57.3721 12.173 57.3918 12.07C57.4117 11.9671 57.4519 11.7426 57.4812 11.571C57.5106 11.3995 57.5552 11.1469 57.5803 11.0096C57.6053 10.8724 57.6485 10.631 57.6761 10.4732C57.7368 10.1261 57.8894 9.26169 57.9536 8.90128C57.9793 8.75719 58.024 8.50456 58.053 8.33989C58.0819 8.17521 58.1217 7.95065 58.1414 7.84087C58.1611 7.73109 58.206 7.47846 58.2411 7.27948C58.2763 7.0805 58.3211 6.82787 58.3408 6.71809C58.3605 6.6083 58.4002 6.38374 58.4289 6.21907C58.4577 6.05439 58.5029 5.80863 58.5294 5.67292C58.5559 5.53721 58.5776 5.42212 58.5776 5.41718C58.5776 5.41221 57.7913 5.40817 56.8303 5.40817C55.4545 5.40817 55.0807 5.4148 55.0727 5.43936ZM66.3767 5.43936C66.3608 5.49452 66.3147 5.73996 66.2865 5.91966C66.2714 6.01572 66.2486 6.14484 66.2358 6.20659C66.2152 6.30585 66.1939 6.42776 66.1113 6.91769C66.0997 6.98631 66.0784 7.1042 66.0638 7.17967C66.0493 7.25515 66.0269 7.38427 66.014 7.46661C66.0012 7.54895 65.9787 7.67807 65.9641 7.75354C65.9495 7.82902 65.9271 7.95814 65.9142 8.04048C65.9014 8.12282 65.8789 8.25194 65.8643 8.32741C65.8497 8.40289 65.8273 8.53201 65.8144 8.61435C65.8016 8.69668 65.7792 8.8258 65.7648 8.90128C65.7503 8.97676 65.7278 9.10026 65.7148 9.17574C65.7017 9.25121 65.6787 9.38034 65.6636 9.46267C65.6485 9.54501 65.6261 9.67413 65.6137 9.74961C65.6014 9.82508 65.5789 9.9542 65.5638 10.0365C65.5487 10.1189 65.5263 10.248 65.5139 10.3235C65.5016 10.399 65.4803 10.5225 65.4667 10.5979C65.4531 10.6734 65.4353 10.7745 65.4271 10.8225C65.4189 10.8705 65.4019 10.966 65.3894 11.0346C65.3768 11.1032 65.3542 11.2323 65.3393 11.3215C65.3243 11.4107 65.3018 11.5398 65.2894 11.6084C65.2769 11.6771 65.2544 11.8062 65.2395 11.8954C65.2245 11.9846 65.202 12.1137 65.1896 12.1823C65.1771 12.2509 65.1542 12.38 65.1388 12.4692C65.1233 12.5584 65.1003 12.682 65.0877 12.7437C65.0751 12.8055 65.0467 12.9626 65.0247 13.093C64.9753 13.3851 64.9502 13.5325 64.9141 13.7417C64.8563 14.0767 64.842 14.157 64.8163 14.2907C64.8018 14.3661 64.7794 14.4953 64.7666 14.5776C64.7538 14.6599 64.7309 14.7947 64.7157 14.877C64.7005 14.9593 64.6779 15.0885 64.6656 15.1639C64.6532 15.2394 64.6313 15.3657 64.6169 15.4446C64.6025 15.5235 64.579 15.6526 64.5645 15.7316C64.5501 15.8105 64.5282 15.9368 64.5159 16.0123C64.5035 16.0877 64.4822 16.2112 64.4686 16.2867C64.4361 16.4661 64.3769 16.827 64.3432 17.0525C64.2842 17.4461 64.3124 17.9535 64.4204 18.445C64.6198 19.3522 65.1556 20.1116 65.9924 20.6733C66.168 20.7912 66.7053 21.0723 66.8238 21.1083C66.8513 21.1167 66.9748 21.1594 67.0983 21.2032C67.3028 21.2759 67.6011 21.3616 67.7595 21.3933C68.2896 21.4993 68.3184 21.5034 68.9571 21.564C69.5996 21.6249 70.3448 21.6056 71.3025 21.5031C72.405 21.3852 73.5248 21.0116 74.2466 20.5208C75.2524 19.8368 75.8994 18.8303 76.2544 17.397C76.3054 17.1912 76.3566 16.9666 76.3682 16.898C76.3799 16.8294 76.4409 16.4813 76.504 16.1245C76.567 15.7677 76.6407 15.3495 76.6677 15.1951C76.7425 14.7681 76.8171 14.3422 76.8416 14.2033C76.8832 13.9673 76.9686 13.4793 77.0184 13.1928C77.0458 13.035 77.0912 12.7768 77.1192 12.619C77.1472 12.4611 77.1908 12.2141 77.2161 12.07C77.315 11.5073 77.3951 11.0505 77.4295 10.8537C77.4492 10.7405 77.4816 10.5552 77.5014 10.442C77.5211 10.3288 77.5599 10.107 77.5874 9.94921C77.615 9.7914 77.6668 9.49948 77.7026 9.30049C77.7384 9.10151 77.777 8.87695 77.7885 8.80148C77.8 8.726 77.8269 8.56881 77.8483 8.45217C77.8873 8.23973 77.9428 7.92708 78.041 7.36681C78.0698 7.20213 78.1143 6.9495 78.1397 6.80541C78.1652 6.66132 78.2099 6.40308 78.2391 6.23154C78.2684 6.06001 78.3074 5.84106 78.3259 5.745C78.3444 5.64894 78.3658 5.53387 78.3734 5.48926L78.3873 5.40817H76.6418H74.8964L74.8834 5.47054C74.8763 5.50485 74.8639 5.56379 74.8559 5.60154C74.8478 5.63929 74.8198 5.79648 74.7935 5.95085C74.7081 6.45261 74.6497 6.78742 74.5966 7.07987C74.5679 7.23769 74.523 7.49031 74.4967 7.64126C74.4705 7.79222 74.4262 8.04484 74.3983 8.20266C74.3178 8.65861 74.2604 8.98481 74.1126 9.82446C73.967 10.6525 73.8369 11.3897 73.6723 12.3195C73.3765 13.9899 73.3655 14.0522 73.2734 14.5776C72.8919 16.7538 72.8783 16.8189 72.7392 17.1407C72.6143 17.4295 72.5078 17.5948 72.3255 17.7828C71.9591 18.1605 71.5647 18.3379 70.816 18.4618C70.5125 18.5121 69.5602 18.5036 69.2441 18.4478C68.7599 18.3624 68.4611 18.2325 68.2334 18.0083C67.8637 17.6444 67.7968 17.0872 67.9947 16.0208C68.0147 15.9132 68.0543 15.6904 68.0828 15.5257C68.1113 15.361 68.1562 15.1084 68.1826 14.9643C68.209 14.8202 68.254 14.5676 68.2826 14.4029C68.3113 14.2383 68.3525 14.0081 68.3741 13.8914C68.3958 13.7748 68.423 13.6176 68.4347 13.5421C68.4463 13.4667 68.4793 13.2758 68.5079 13.118C68.5676 12.7888 68.6404 12.3784 68.7092 11.9827C68.7354 11.8318 68.7801 11.5791 68.8085 11.4213C68.8369 11.2635 68.8814 11.0109 68.9073 10.8599C68.9333 10.709 68.9779 10.4563 69.0066 10.2985C69.0352 10.1407 69.0753 9.91054 69.0956 9.78703C69.1159 9.66353 69.1433 9.50634 69.1566 9.43772C69.1819 9.30621 69.2433 8.96278 69.3304 8.46464C69.3806 8.17793 69.4189 7.96136 69.5315 7.32938C69.5597 7.17157 69.6044 6.91894 69.631 6.76799C69.6575 6.61703 69.7029 6.35879 69.7319 6.19412C69.7608 6.02944 69.8005 5.8121 69.82 5.71114C69.8394 5.61019 69.8554 5.50071 69.8554 5.46788V5.40817H68.1205C66.754 5.40817 66.3837 5.41478 66.3767 5.43936ZM20.3031 8.37462C20.4609 8.38984 20.7135 8.41392 20.8645 8.42814C21.2819 8.46741 21.8326 8.56978 21.9212 8.62457C21.9462 8.64002 21.9263 8.75928 21.8297 9.17319C21.7618 9.46407 21.7016 9.70677 21.6958 9.71251C21.6901 9.71824 21.5568 9.7013 21.3997 9.67481C20.9609 9.60088 20.2375 9.55162 19.1553 9.52201C17.2214 9.46908 16.2366 9.53997 15.5241 9.78334C14.5708 10.109 14.0316 10.7048 13.6805 11.8205C13.5754 12.1545 13.4954 12.5205 13.3671 13.2552C13.3069 13.5993 13.2643 13.8382 13.1922 14.2344C13.1641 14.3887 13.1187 14.6414 13.0912 14.7958C13.0638 14.9503 13.0198 15.1945 12.9934 15.3386C12.967 15.4827 12.9214 15.7353 12.892 15.9C12.8626 16.0647 12.8179 16.3117 12.7926 16.4489C12.7673 16.5861 12.7229 16.8331 12.694 16.9978C12.6651 17.1625 12.62 17.4151 12.5938 17.5592C12.5676 17.7033 12.5292 17.9166 12.5084 18.0333C12.4743 18.225 12.448 18.3703 12.3304 19.0188C12.1985 19.7459 12.1653 20.0415 12.1635 20.5059C12.162 20.8931 12.1788 21.0475 12.2484 21.2894C12.3263 21.56 12.4361 21.7438 12.6453 21.9545C12.8039 22.1141 12.8778 22.1663 13.0947 22.2718C13.4838 22.4611 13.7886 22.535 14.502 22.6128C15.4438 22.7155 17.2328 22.5679 18.3139 22.2983C18.4206 22.2717 18.529 22.25 18.5547 22.25C18.6085 22.25 18.631 22.1644 18.7317 21.5763C18.747 21.4871 18.7689 21.3692 18.7805 21.3143C18.7921 21.2594 18.8144 21.1359 18.83 21.0398C18.8457 20.9438 18.8681 20.8203 18.8799 20.7654C18.8917 20.7105 18.9143 20.587 18.9301 20.4909C18.9458 20.3949 18.9684 20.2657 18.9803 20.204C18.9922 20.1422 19.0148 20.0187 19.0306 19.9295C19.0464 19.8403 19.0688 19.7168 19.0805 19.6551C19.0921 19.5933 19.1146 19.4698 19.1304 19.3806C19.1462 19.2914 19.1686 19.1679 19.1803 19.1062C19.1919 19.0444 19.2144 18.9209 19.2302 18.8317C19.246 18.7425 19.2696 18.6134 19.2827 18.5448C19.323 18.3337 19.3514 18.1775 19.3804 18.0083C19.3957 17.9191 19.4176 17.8012 19.4292 17.7463C19.4408 17.6914 19.4631 17.5679 19.4787 17.4719C19.4944 17.3758 19.517 17.2523 19.529 17.1974C19.5409 17.1425 19.5641 17.0134 19.5803 16.9105C19.5966 16.8076 19.6208 16.6869 19.6341 16.6423L19.6582 16.5612H20.2911C20.6895 16.5612 20.9297 16.5705 20.9394 16.5863C20.948 16.6002 20.9383 16.6984 20.918 16.8046C20.8725 17.0423 20.8087 17.399 20.6782 18.1456C20.623 18.4612 20.5611 18.8092 20.5407 18.919C20.5203 19.0288 20.4802 19.2534 20.4515 19.418C20.4229 19.5827 20.3785 19.8353 20.353 19.9794C20.3274 20.1235 20.2828 20.3762 20.2538 20.5408C20.2249 20.7055 20.185 20.9301 20.1651 21.0398C20.1453 21.1496 20.1065 21.3686 20.0788 21.5264C20.0313 21.7975 19.9879 22.0401 19.8783 22.6492C19.8524 22.7933 19.824 22.959 19.8154 23.0175C19.8063 23.0786 19.7819 23.1332 19.7581 23.1457C19.7071 23.1726 19.1351 23.3376 18.8809 23.3987C18.2887 23.5412 17.4354 23.6808 16.7601 23.7458C15.8727 23.8312 14.7226 23.8477 14.0654 23.7845C12.081 23.5937 11.0605 22.7874 10.8443 21.2395C10.7821 20.7942 10.8204 20.0103 10.9325 19.4305C10.9525 19.3276 11.0197 18.9571 11.0819 18.6071C11.295 17.4093 11.5467 15.9999 11.5833 15.8002C11.6034 15.6904 11.6535 15.4097 11.6947 15.1764C11.7727 14.7348 11.7867 14.6569 11.869 14.2033C11.8964 14.0524 11.9417 13.7997 11.9696 13.6419C12.0745 13.0496 12.1253 12.7719 12.1864 12.4574C12.5238 10.7197 13.134 9.69209 14.2024 9.06239C14.8913 8.65641 15.7909 8.43058 17.0719 8.34206C17.3604 8.32212 20.0388 8.34909 20.3031 8.37462ZM22.0612 12.5811C23.5184 12.7528 24.4694 13.2957 24.8753 14.1874C25.101 14.6834 25.156 14.9823 25.156 15.7128C25.156 16.2692 25.1279 16.5677 25.0314 17.0352C25.013 17.1244 24.9738 17.3378 24.9443 17.5093C24.9148 17.6808 24.8697 17.9335 24.8441 18.0707C24.8185 18.2079 24.7741 18.4549 24.7454 18.6196C24.7167 18.7843 24.6318 19.2615 24.5568 19.68C24.4053 20.5247 24.3415 20.8818 24.2689 21.2894C24.242 21.4403 24.2035 21.6536 24.1833 21.7634C24.163 21.8732 24.123 22.0978 24.0943 22.2624C24.0656 22.4271 24.0214 22.6741 23.9961 22.8114C23.9709 22.9486 23.9261 23.1956 23.8966 23.3603C23.7624 24.1097 23.7033 24.3727 23.566 24.8324C23.1979 26.0652 22.5471 26.9151 21.613 27.3833C20.6563 27.8628 19.5891 28.0392 17.6458 28.0391C16.7112 28.039 15.3778 27.9764 14.9886 27.9143C14.9131 27.9022 14.7559 27.8793 14.6392 27.8633C14.5226 27.8472 14.3935 27.8245 14.3523 27.8128C14.3111 27.8011 14.2241 27.7782 14.1589 27.762C14.0241 27.7286 14.0235 27.7266 14.0792 27.4912C14.1005 27.4011 14.1404 27.232 14.1679 27.1154C14.2594 26.7267 14.2722 26.6789 14.291 26.6577C14.3012 26.6461 14.4652 26.6598 14.6553 26.6881C15.3946 26.7983 16.5723 26.8492 18.0325 26.8342C18.9154 26.8251 19.2643 26.8125 19.4922 26.7813C20.439 26.6518 21.0034 26.4222 21.4797 25.9729C21.723 25.7434 21.8783 25.5274 22.0486 25.1817C22.2841 24.7037 22.405 24.2811 22.5732 23.3478C22.6293 23.0366 22.6999 22.6487 22.7368 22.4496C22.7955 22.1324 22.875 21.6815 22.8996 21.5264C22.9115 21.4509 22.933 21.333 22.9474 21.2644C22.9618 21.1958 22.9843 21.0723 22.9974 20.9899C23.0106 20.9076 23.033 20.7841 23.0473 20.7155C23.0616 20.6469 23.0845 20.5197 23.0981 20.433C23.1117 20.3463 23.1382 20.1947 23.157 20.0962C23.1759 19.9977 23.2044 19.8385 23.2205 19.7424C23.2366 19.6463 23.2595 19.5228 23.2713 19.4679C23.2831 19.4131 23.3057 19.2895 23.3215 19.1935C23.3374 19.0974 23.3605 18.9683 23.3729 18.9066C23.3853 18.8448 23.418 18.6652 23.4456 18.5073C23.5218 18.0713 23.592 17.676 23.6472 17.3721C23.7342 16.8927 23.7451 16.8272 23.7701 16.636C23.8397 16.1034 23.8514 15.7812 23.8125 15.4758C23.7563 15.0363 23.6735 14.8049 23.4805 14.5491C23.1863 14.1592 22.712 13.9291 21.9124 13.7882C21.6129 13.7355 21.5173 13.7311 20.6649 13.7316C19.869 13.7321 19.6781 13.7398 19.2801 13.7875C18.578 13.8717 17.9249 13.9848 17.497 14.0962C17.3567 14.1327 17.3772 14.0849 17.2852 14.5901C17.119 15.503 16.9002 16.7091 16.8598 16.9354C16.7783 17.3915 16.5764 18.5037 16.4725 19.0687C16.4497 19.1922 16.4125 19.4 16.3896 19.5303L16.348 19.7674L15.6932 19.774C15.3331 19.7777 15.0387 19.772 15.039 19.7615C15.0397 19.7323 15.0828 19.4599 15.111 19.3058C15.1501 19.0917 15.2407 18.583 15.2642 18.445C15.2759 18.3763 15.2974 18.2585 15.3119 18.183C15.3264 18.1075 15.3489 17.9784 15.3617 17.896C15.3746 17.8137 15.3969 17.6846 15.4114 17.6091C15.4259 17.5336 15.4484 17.4101 15.4614 17.3347C15.4744 17.2592 15.4974 17.1301 15.5125 17.0477C15.5276 16.9654 15.5501 16.8363 15.5624 16.7608C15.5748 16.6853 15.5973 16.5562 15.6124 16.4738C15.6276 16.3915 15.6495 16.268 15.6611 16.1994C15.6849 16.059 15.776 15.5473 15.8144 15.3386C15.8282 15.2631 15.8491 15.1452 15.8607 15.0766C15.8826 14.9477 15.9698 14.4571 16.0138 14.2158C16.0275 14.1403 16.0445 14.0393 16.0516 13.9912C16.0586 13.9432 16.0741 13.859 16.0859 13.8041C16.0978 13.7492 16.1207 13.6201 16.1369 13.5172C16.1801 13.2423 16.2 13.202 16.3067 13.1728C17.3743 12.8809 17.7169 12.8065 18.5031 12.6953C18.9392 12.6336 19.5795 12.5736 20.2157 12.5346C20.5715 12.5128 21.7294 12.542 22.0612 12.5811ZM80.2848 17.4855C79.6653 17.5437 79.11 17.9254 78.7898 18.5132C78.6657 18.7409 78.5641 19.1371 78.5641 19.3931C78.5641 19.5266 78.6252 19.8647 78.6769 20.0179C78.8393 20.4984 79.2304 20.9351 79.686 21.1447C79.9563 21.269 80.1567 21.3098 80.4969 21.3098C80.8502 21.3098 81.0479 21.2671 81.3327 21.1291C82.0628 20.7755 82.493 19.9925 82.4032 19.181C82.3529 18.7263 82.1669 18.345 81.841 18.0282C81.6546 17.847 81.5345 17.7613 81.332 17.6646C81.0106 17.5113 80.6562 17.4506 80.2848 17.4855Z" fill="#0981D8"/>
</svg>
