<svg width="18" height="17" viewBox="0 0 18 17" fill="none" xmlns="http://www.w3.org/2000/svg">
<path d="M11.1772 16.0313C14.393 16.0313 17 13.4244 17 10.2085C17 6.9927 14.393 4.38574 11.1772 4.38574C7.96133 4.38574 5.35437 6.9927 5.35437 10.2085C5.35437 13.4244 7.96133 16.0313 11.1772 16.0313Z" stroke="#00C2AC" stroke-linecap="round" stroke-linejoin="round"/>
<path d="M11.1771 13.1814C12.7851 13.1814 14.0886 11.8778 14.0886 10.2698C14.0886 8.66186 12.7851 7.35834 11.1771 7.35834C9.56915 7.35834 8.26562 8.66186 8.26562 10.2698C8.26562 11.8778 9.56915 13.1814 11.1771 13.1814Z" fill="#00C2AC"/>
<path d="M1 1L4.24386 4.24386" stroke="#00C2AC" stroke-linecap="round" stroke-linejoin="round"/>
<path d="M4.70187 1.76874V4.704H1.7666" stroke="#00C2AC" stroke-linecap="round" stroke-linejoin="round"/>
</svg>
