<svg width="18" height="18" viewBox="0 0 18 18" fill="none" xmlns="http://www.w3.org/2000/svg">
<path d="M1.00009 8.99532C1.00009 10.4008 2.13949 11.5403 3.54503 11.5403C4.95056 11.5403 6.08997 10.4008 6.08997 8.99532C6.08997 7.58979 4.95056 6.45038 3.54503 6.45038C2.13949 6.45038 1.00009 7.58979 1.00009 8.99532Z" stroke="white" stroke-linecap="round" stroke-linejoin="round"/>
<path d="M11.9071 14.454C11.9071 15.8596 13.0465 16.999 14.452 16.999C15.8575 16.999 16.9969 15.8596 16.9969 14.454C16.9969 13.0485 15.8575 11.9091 14.452 11.9091C13.0465 11.9091 11.9071 13.0485 11.9071 14.454Z" stroke="white" stroke-linecap="round" stroke-linejoin="round"/>
<path d="M11.9071 3.54494C11.9071 4.95047 13.0465 6.08988 14.452 6.08988C15.8575 6.08988 16.9969 4.95047 16.9969 3.54494C16.9969 2.13941 15.8575 1 14.452 1C13.0465 1 11.9071 2.13941 11.9071 3.54494Z" stroke="white" stroke-linecap="round" stroke-linejoin="round"/>
<path d="M11.9056 4.63584L6.08758 7.9085" stroke="white" stroke-linecap="round" stroke-linejoin="round"/>
<path d="M11.9063 12.9991L6.09036 10.0917" stroke="white" stroke-linecap="round" stroke-linejoin="round"/>
</svg>
