<svg width="18" height="17" viewBox="0 0 18 17"
    xmlns="http://www.w3.org/2000/svg">
    <path d="M6.53857 16.3848L6.53857 12.3938C6.53857 12.2958 6.56196 12.1993 6.60678 12.1122C6.6516 12.0251 6.71657 11.9499 6.79627 11.893L14.8963 6.1073C14.976 6.05036 15.0409 5.97522 15.0858 5.88813C15.1306 5.80103 15.154 5.70449 15.154 5.60654L15.154 1.00015" stroke-linecap="round" stroke-linejoin="round"/>
    <path d="M1 2.8457L2.84615 0.999549L4.69231 2.8457" stroke-linecap="round" stroke-linejoin="round"/>
    <path d="M7.15381 2.8457L8.99996 0.999549L10.8461 2.8457" stroke-linecap="round" stroke-linejoin="round"/>
    <path d="M13.3076 2.8457L15.1538 0.999549L16.9999 2.8457" stroke-linecap="round" stroke-linejoin="round"/>
    <path d="M5.03639 7.4873L3.10389 6.10695C3.02418 6.05001 2.95922 5.97487 2.9144 5.88778C2.86957 5.80068 2.84619 5.70414 2.84619 5.60619L2.84619 0.999799" stroke-linecap="round" stroke-linejoin="round"/>
    <path d="M9 10.2305L9 0.999699" stroke-linecap="round" stroke-linejoin="round"/>
</svg>
