<svg width="17" height="17" viewBox="0 0 17 17"
    xmlns="http://www.w3.org/2000/svg">
    <path d="M8.5 6.91211L8.50001 16.3034" stroke-linecap="round" stroke-linejoin="round"/>
    <path d="M8.49989 1L8.49988 3.43478" stroke-linecap="round" stroke-linejoin="round"/>
    <path d="M8.4995 6.91365C9.46 6.91365 10.2386 6.13502 10.2386 5.17452C10.2386 4.21403 9.46 3.43539 8.4995 3.43539C7.53901 3.43539 6.76038 4.21403 6.76038 5.17452C6.76038 6.13502 7.53901 6.91365 8.4995 6.91365Z" stroke-linecap="round" stroke-linejoin="round"/>
    <path d="M14.7607 13.8701L14.7608 16.3049" stroke-linecap="round" stroke-linejoin="round"/>
    <path d="M14.7609 1L14.7609 10.3913" stroke-linecap="round" stroke-linejoin="round"/>
    <path d="M14.7609 13.8698C15.7214 13.8698 16.5 13.0912 16.5 12.1307C16.5 11.1702 15.7214 10.3916 14.7609 10.3916C13.8004 10.3916 13.0217 11.1702 13.0217 12.1307C13.0217 13.0912 13.8004 13.8698 14.7609 13.8698Z" stroke-linecap="round" stroke-linejoin="round"/>
    <path d="M2.2398 11.0879L2.23975 16.3053" stroke-linecap="round" stroke-linejoin="round"/>
    <path d="M2.23962 1L2.23968 7.60869" stroke-linecap="round" stroke-linejoin="round"/>
    <path d="M2.23913 11.0865C3.19962 11.0865 3.97826 10.3079 3.97826 9.3474C3.97826 8.38691 3.19962 7.60828 2.23913 7.60828C1.27863 7.60828 0.5 8.38691 0.5 9.3474C0.5 10.3079 1.27863 11.0865 2.23913 11.0865Z" stroke-linecap="round" stroke-linejoin="round"/>
</svg>
