<svg width="17" height="18" viewBox="0 0 17 18" fill="none" xmlns="http://www.w3.org/2000/svg">
<path d="M15.6653 3.33311C15.6653 2.04457 14.6207 0.999997 13.3321 0.999997C12.0436 0.999997 10.999 2.04457 10.999 3.33311C10.999 4.62166 12.0436 5.66623 13.3321 5.66623C14.6207 5.66623 15.6653 4.62166 15.6653 3.33311Z" stroke="white" stroke-linecap="round" stroke-linejoin="round"/>
<path d="M10.9991 3.33291L7.65616 3.33305C6.59545 3.33309 5.5782 3.75448 4.82816 4.50451L1.66663 7.66605" stroke="white" stroke-linecap="round" stroke-linejoin="round"/>
<path d="M4.99965 7.66605L1.66663 7.66605L1.66663 4.33302" stroke="white" stroke-linecap="round" stroke-linejoin="round"/>
<path d="M5.66623 14.6649C5.66623 13.3764 4.62166 12.3318 3.33312 12.3318C2.04457 12.3318 1 13.3764 1 14.6649C1 15.9535 2.04457 16.998 3.33312 16.998C4.62166 16.998 5.66623 15.9535 5.66623 14.6649Z" stroke="white" stroke-linecap="round" stroke-linejoin="round"/>
<path d="M5.66602 14.665L9.00895 14.6649C10.0697 14.6649 11.0869 14.2435 11.8369 13.4934L14.9985 10.3319" stroke="white" stroke-linecap="round" stroke-linejoin="round"/>
<path d="M11.6655 10.332L14.9986 10.332L14.9986 13.665" stroke="white" stroke-linecap="round" stroke-linejoin="round"/>
</svg>
