<svg width="18" height="18" viewBox="0 0 18 18"
    xmlns="http://www.w3.org/2000/svg">
    <path d="M1.00006 8.99972C1.00006 10.4056 2.13978 11.5453 3.54569 11.5453C4.95159 11.5453 6.09131 10.4056 6.09131 8.99972C6.09131 7.59382 4.95159 6.4541 3.54569 6.4541C2.13978 6.4541 1.00006 7.59382 1.00006 8.99972Z" stroke-linecap="round" stroke-linejoin="round"/>
    <path d="M11.9092 14.4546C11.9092 15.8605 13.049 17.0002 14.4549 17.0002C15.8608 17.0002 17.0005 15.8605 17.0005 14.4546C17.0005 13.0487 15.8608 11.909 14.4549 11.909C13.049 11.909 11.9092 13.0487 11.9092 14.4546Z" stroke-linecap="round" stroke-linejoin="round"/>
    <path d="M11.9092 3.54562C11.9092 4.95153 13.049 6.09124 14.4549 6.09124C15.8608 6.09124 17.0005 4.95153 17.0005 3.54562C17.0005 2.13971 15.8608 1 14.4549 1C13.049 1 11.9092 2.13971 11.9092 3.54562Z" stroke-linecap="round" stroke-linejoin="round"/>
    <path d="M11.9086 3.54596L11.1811 3.54596C10.8945 3.54596 10.6108 3.6024 10.3461 3.71206C10.0813 3.82171 9.84079 3.98244 9.63817 4.18506C9.43556 4.38768 9.27484 4.62822 9.16518 4.89295C9.05553 5.15768 8.9991 5.44142 8.99911 5.72797L8.99924 12.2739C8.99925 12.8525 9.22914 13.4075 9.63833 13.8167C10.0475 14.2259 10.6025 14.4558 11.1812 14.4558L11.9086 14.4558" stroke-linecap="round" stroke-linejoin="round"/>
    <path d="M9.00049 9.00022L6.09121 9" stroke-linecap="round" stroke-linejoin="round"/>
</svg>
