<svg width="17" height="18" viewBox="0 0 17 18" fill="none" xmlns="http://www.w3.org/2000/svg">
<path d="M16.0313 6.8228C16.0313 3.60695 13.4244 0.999992 10.2085 0.999992C6.9927 0.999992 4.38574 3.60695 4.38574 6.8228C4.38574 10.0386 6.9927 12.6456 10.2085 12.6456C13.4244 12.6456 16.0313 10.0386 16.0313 6.8228Z" stroke="#00C2AC" stroke-linecap="round" stroke-linejoin="round"/>
<path d="M13.1813 6.8228C13.1813 5.21482 11.8778 3.91129 10.2698 3.91129C8.6618 3.91129 7.35828 5.21482 7.35828 6.8228C7.35828 8.43079 8.6618 9.73431 10.2698 9.73431C11.8778 9.73431 13.1813 8.43079 13.1813 6.8228Z" fill="#00C2AC"/>
<path d="M1 17L4.24386 13.7561" stroke="#00C2AC" stroke-linecap="round" stroke-linejoin="round"/>
<path d="M1.76868 13.2981L4.70394 13.2981L4.70394 16.2334" stroke="#00C2AC" stroke-linecap="round" stroke-linejoin="round"/>
</svg>
