<svg width="18" height="18" viewBox="0 0 18 18" fill="none" xmlns="http://www.w3.org/2000/svg">
<path d="M3.54552 17.0002C4.95138 17.0002 6.09105 15.8606 6.09105 14.4547C6.09105 13.0488 4.95138 11.9092 3.54552 11.9092C2.13967 11.9092 1 13.0488 1 14.4547C1 15.8606 2.13967 17.0002 3.54552 17.0002Z" stroke="white" stroke-linecap="round" stroke-linejoin="round"/>
<path d="M14.454 6.09105C15.8598 6.09105 16.9995 4.95138 16.9995 3.54552C16.9995 2.13967 15.8598 1 14.454 1C13.0481 1 11.9084 2.13967 11.9084 3.54552C11.9084 4.95138 13.0481 6.09105 14.454 6.09105Z" stroke="white" stroke-linecap="round" stroke-linejoin="round"/>
<path d="M3.54552 6.09105C4.95138 6.09105 6.09105 4.95138 6.09105 3.54552C6.09105 2.13967 4.95138 1 3.54552 1C2.13967 1 1 2.13967 1 3.54552C1 4.95138 2.13967 6.09105 3.54552 6.09105Z" stroke="white" stroke-linecap="round" stroke-linejoin="round"/>
<path d="M3.54565 11.9101V11.1828C3.54567 10.6042 3.77554 10.0492 4.18471 9.64007C4.59388 9.2309 5.14884 9.00103 5.72749 9.00103L12.2732 9.0009C12.8519 9.0009 13.4068 8.77103 13.816 8.36187C14.2252 7.9527 14.455 7.39776 14.455 6.81911V6.0918" stroke="white" stroke-linecap="round" stroke-linejoin="round"/>
<path d="M3.54565 6.0918V11.9101" stroke="white" stroke-linecap="round" stroke-linejoin="round"/>
</svg>
