<svg width="12" height="12" viewBox="0 0 12 12" fill="none" xmlns="http://www.w3.org/2000/svg">
<path fill-rule="evenodd" clip-rule="evenodd" d="M4.35871 0.0182324C3.73911 0.11495 3.10262 0.466702 2.72886 0.918963C2.31909 1.41475 2.11842 1.95353 2.11284 2.57282C2.10741 3.17518 2.27904 3.69677 2.63776 4.16803C2.99269 4.63432 3.48317 4.96175 4.06818 5.12292C4.28574 5.18286 4.34602 5.18878 4.73951 5.18893C5.11369 5.18905 5.20005 5.18149 5.38179 5.1328C6.14825 4.92739 6.75943 4.43563 7.09736 3.75247C7.60004 2.73624 7.3976 1.54223 6.58799 0.748271C6.25692 0.423589 5.84178 0.190979 5.38688 0.0752357C5.11655 0.00644537 4.61301 -0.0214816 4.35871 0.0182324ZM2.06516 6.29153C1.54858 6.38502 1.11541 6.61159 0.736983 6.98621C0.349072 7.37019 0.125757 7.79565 0.0330959 8.32704C0.00189603 8.50612 -0.00371155 8.73971 0.00194544 9.62293C0.00866465 10.6675 0.0104433 10.7024 0.0598246 10.7679C0.0878378 10.805 0.141443 10.8581 0.178967 10.8858C0.246851 10.936 0.261352 10.9363 3.18717 10.9426C4.80418 10.9462 6.1229 10.9407 6.11767 10.9304C5.93709 10.5768 5.89018 10.3957 5.90702 10.117C5.92076 9.8899 5.99615 9.65668 6.11171 9.48381L6.17886 9.38338L6.11171 9.28294C6.07478 9.2277 6.0154 9.10939 5.97977 9.02006C5.92293 8.87749 5.91508 8.82317 5.91565 8.57638C5.91646 8.21837 5.94097 8.15114 6.28812 7.55396C6.50437 7.18194 6.58611 7.06492 6.72741 6.92517C6.98956 6.66588 7.28268 6.54666 7.658 6.54666C7.8301 6.54666 7.85036 6.54165 7.86523 6.49528C7.8743 6.46704 7.8716 6.43393 7.85925 6.4217C7.8469 6.40947 7.7263 6.36944 7.59125 6.33271L7.34568 6.26595L4.80127 6.26138C2.69601 6.25761 2.22378 6.26282 2.06516 6.29153ZM8.9468 6.80255C8.83858 6.84914 8.80212 6.93426 8.76835 7.21916C8.73011 7.54215 8.7179 7.5982 8.68591 7.5982C8.67117 7.5982 8.57697 7.64885 8.47663 7.71077C8.37177 7.77547 8.27636 7.81805 8.25223 7.81088C8.22916 7.80401 8.08484 7.74713 7.93153 7.68445C7.68035 7.58179 7.64458 7.57318 7.57015 7.59749C7.4601 7.63347 7.4497 7.64713 7.18862 8.09957C6.87415 8.64446 6.87427 8.64532 7.29469 8.96342L7.51544 9.13042L7.51702 9.38203L7.5186 9.63364L7.26621 9.82651C7.1274 9.9326 7.00233 10.0406 6.9883 10.0666C6.92849 10.1772 6.95947 10.2701 7.18862 10.6672C7.4497 11.1196 7.4601 11.1333 7.57015 11.1693C7.64458 11.1936 7.68035 11.185 7.93153 11.0823C8.08484 11.0196 8.22916 10.9627 8.25223 10.9559C8.27636 10.9487 8.37177 10.9913 8.47663 11.056C8.57697 11.1179 8.67117 11.1685 8.68591 11.1685C8.7179 11.1685 8.73011 11.2246 8.76835 11.5476C8.82035 11.9864 8.84181 12 9.48249 12C10.1232 12 10.1446 11.9864 10.1966 11.5476C10.2383 11.1953 10.2441 11.175 10.3053 11.1593C10.3351 11.1517 10.4294 11.1 10.5149 11.0444C10.605 10.9858 10.688 10.9486 10.7125 10.9558C10.7357 10.9627 10.8801 11.0196 11.0334 11.0823C11.2846 11.185 11.3204 11.1936 11.3948 11.1693C11.5049 11.1333 11.5153 11.1196 11.7764 10.6672C12.0913 10.1214 12.0901 10.1125 11.6579 9.7924L11.4495 9.63804L11.448 9.3847L11.4464 9.13135L11.6856 8.95202C12.0903 8.64864 12.0905 8.6461 11.7656 8.0814C11.4538 7.53956 11.4276 7.52308 11.0949 7.65975C10.9757 7.70871 10.8337 7.7654 10.7794 7.78577L10.6806 7.82279L10.471 7.69714C10.3557 7.62804 10.2544 7.55824 10.2459 7.54205C10.2374 7.52587 10.2164 7.39156 10.1994 7.24361C10.1456 6.7769 10.1295 6.76634 9.4771 6.7677C9.1484 6.76841 9.00406 6.77788 8.9468 6.80255ZM9.84327 8.40852C10.1171 8.5094 10.3137 8.68943 10.434 8.94955C10.7254 9.5797 10.3309 10.3007 9.63382 10.4119C9.07711 10.5006 8.53594 10.1011 8.44355 9.53318C8.37325 9.101 8.62228 8.63729 9.02484 8.45081C9.29773 8.3244 9.57591 8.31002 9.84327 8.40852Z" fill="white"/>
</svg>
