<svg width="12" height="12" viewBox="0 0 12 12" fill="none" xmlns="http://www.w3.org/2000/svg">
<path d="M12 0.545455V3.27273C12 3.38061 11.968 3.48607 11.9081 3.57577C11.8481 3.66547 11.7629 3.73538 11.6633 3.77666C11.5636 3.81795 11.4539 3.82875 11.3481 3.8077C11.2423 3.78665 11.1451 3.7347 11.0688 3.65841L10.0909 2.6805L8.02208 4.74933C7.91979 4.85162 7.78105 4.9091 7.63639 4.90911C7.49172 4.90911 7.35298 4.85165 7.25068 4.74936C7.14838 4.64707 7.0909 4.50833 7.0909 4.36366C7.09089 4.219 7.14835 4.08025 7.25064 3.97795L9.3195 1.90909L8.34155 0.931141C8.26528 0.854851 8.21335 0.75766 8.19231 0.651855C8.17127 0.54605 8.18208 0.436384 8.22336 0.33672C8.26465 0.237057 8.33456 0.151873 8.42425 0.0919379C8.51395 0.0320029 8.6194 8.51688e-06 8.72727 0H11.4545C11.5992 1.44661e-06 11.7379 0.0574693 11.8402 0.159762C11.9425 0.262054 12 0.400791 12 0.545455ZM3.97792 7.25068L1.90909 9.3195L0.931175 8.34159C0.854892 8.2653 0.7577 8.21334 0.65189 8.19229C0.546079 8.17124 0.436403 8.18204 0.336731 8.22333C0.237059 8.26461 0.151867 8.33452 0.0919291 8.42423C0.0319914 8.51393 -2.70879e-07 8.61939 0 8.72727V11.4545C1.44661e-06 11.5992 0.0574693 11.7379 0.159762 11.8402C0.262054 11.9425 0.400791 12 0.545455 12H3.27273C3.3806 12 3.48605 11.968 3.57575 11.9081C3.66544 11.8481 3.73535 11.7629 3.77664 11.6633C3.81792 11.5636 3.82873 11.4539 3.80769 11.3481C3.78665 11.2423 3.73472 11.1451 3.65845 11.0689L2.6805 10.0909L4.74936 8.02205C4.85165 7.91975 4.90911 7.78101 4.90911 7.63634C4.9091 7.49167 4.85162 7.35293 4.74933 7.25064C4.64703 7.14835 4.50828 7.09089 4.36362 7.0909C4.21895 7.0909 4.08021 7.14838 3.97792 7.25068H3.97792ZM11.6633 8.22333C11.5636 8.18205 11.4539 8.17126 11.3481 8.19231C11.2423 8.21335 11.1451 8.2653 11.0688 8.34159L10.0909 9.3195L8.02208 7.25067C7.91979 7.14837 7.78105 7.0909 7.63639 7.09089C7.49172 7.09089 7.35298 7.14835 7.25068 7.25064C7.14838 7.35293 7.0909 7.49167 7.0909 7.63634C7.09089 7.781 7.14835 7.91975 7.25064 8.02205L9.3195 10.0909L8.34155 11.0689C8.26528 11.1451 8.21334 11.2423 8.19231 11.3481C8.17127 11.454 8.18208 11.5636 8.22336 11.6633C8.26465 11.7629 8.33456 11.8481 8.42425 11.9081C8.51395 11.968 8.6194 12 8.72727 12H11.4545C11.5992 12 11.7379 11.9425 11.8402 11.8402C11.9425 11.7379 12 11.5992 12 11.4545V8.72727C12 8.61939 11.968 8.51393 11.9081 8.42423C11.8481 8.33453 11.763 8.26462 11.6633 8.22333ZM2.6805 1.90909L3.65845 0.931141C3.73472 0.854851 3.78665 0.75766 3.80769 0.651855C3.82873 0.546051 3.81792 0.436384 3.77664 0.336721C3.73535 0.237058 3.66544 0.151874 3.57575 0.0919385C3.48605 0.0320034 3.3806 8.8423e-06 3.27273 0H0.545455C0.400791 1.44661e-06 0.262054 0.0574693 0.159762 0.159762C0.0574693 0.262054 1.44661e-06 0.400791 0 0.545455V3.27273C2.33365e-06 3.38061 0.0319954 3.48607 0.0919335 3.57577C0.151872 3.66547 0.237063 3.73538 0.336734 3.77666C0.436405 3.81795 0.54608 3.82875 0.65189 3.8077C0.757699 3.78665 0.854891 3.7347 0.931175 3.65841L1.90909 2.6805L3.97792 4.74933C4.08021 4.85162 4.21895 4.9091 4.36361 4.90911C4.50828 4.90911 4.64702 4.85165 4.74932 4.74936C4.85162 4.64707 4.9091 4.50833 4.9091 4.36366C4.90911 4.219 4.85165 4.08025 4.74936 3.97795L2.6805 1.90909Z" fill="white"/>
</svg>
