<svg width="12" height="12" viewBox="0 0 12 12" fill="none" xmlns="http://www.w3.org/2000/svg">
<path d="M11.5 0H3.50004C3.36744 6.62978e-06 3.24027 0.0526868 3.1465 0.146453C3.05273 0.240219 3.00005 0.367392 3.00005 0.499997V3.00005H0.499998C0.367392 3.00005 0.240219 3.05273 0.146453 3.1465C0.052687 3.24027 6.62978e-06 3.36744 0 3.50004V11.5C6.62978e-06 11.6326 0.052687 11.7598 0.146453 11.8535C0.240219 11.9473 0.367392 12 0.499998 12H8.49996C8.63256 12 8.75974 11.9473 8.8535 11.8535C8.94727 11.7598 8.99995 11.6326 8.99995 11.5V8.99995H11.5C11.6326 8.99995 11.7598 8.94727 11.8535 8.8535C11.9473 8.75973 12 8.63256 12 8.49996V0.499997C12 0.367392 11.9473 0.240219 11.8535 0.146453C11.7598 0.0526868 11.6326 6.62978e-06 11.5 0ZM11 7.99996H8.99995V3.50004C8.99995 3.36744 8.94727 3.24027 8.8535 3.1465C8.75974 3.05273 8.63256 3.00005 8.49996 3.00005H4.00004V0.999995H11V7.99996Z" fill="white"/>
</svg>
