<svg width="12" height="12" viewBox="0 0 12 12" fill="none" xmlns="http://www.w3.org/2000/svg">
<path d="M2.91306 3.31559C2.87522 3.22423 2.86532 3.1237 2.88463 3.02671C2.90393 2.92973 2.95156 2.84064 3.02149 2.77073L5.6465 0.146393C5.74027 0.0526573 5.86743 0 6.00001 0C6.1326 0 6.25976 0.0526573 6.35353 0.146393L8.97854 2.77073C9.04847 2.84065 9.0961 2.92974 9.1154 3.02673C9.1347 3.12372 9.1248 3.22426 9.08696 3.31563C9.04912 3.40699 8.98503 3.48509 8.90281 3.54003C8.82058 3.59498 8.72391 3.62431 8.62502 3.62431H6.50002V7.49999C6.50002 7.6326 6.44734 7.75978 6.35357 7.85354C6.2598 7.94731 6.13262 7.99999 6.00001 7.99999C5.86741 7.99999 5.74023 7.94731 5.64646 7.85354C5.55269 7.75978 5.50001 7.6326 5.50001 7.49999V3.62431H3.37501C3.27611 3.62431 3.17943 3.59498 3.0972 3.54003C3.01497 3.48508 2.95089 3.40697 2.91306 3.31559V3.31559ZM11.5 6.99999C11.3674 6.99999 11.2402 7.05268 11.1465 7.14644C11.0527 7.24021 11 7.36738 11 7.49999V11H1V7.49999C1 7.36738 0.947324 7.2402 0.853555 7.14643C0.759787 7.05267 0.63261 6.99999 0.500001 6.99999C0.367393 6.99999 0.240215 7.05267 0.146447 7.14643C0.0526786 7.2402 0 7.36738 0 7.49999V11C0.000303212 11.2651 0.105758 11.5193 0.293229 11.7068C0.4807 11.8942 0.734878 11.9997 1 12H11C11.2652 11.9997 11.5193 11.8942 11.7068 11.7068C11.8943 11.5193 11.9997 11.2651 12 11V7.49999C12 7.36738 11.9473 7.24021 11.8536 7.14644C11.7598 7.05268 11.6326 6.99999 11.5 6.99999V6.99999Z" fill="white"/>
</svg>
