<svg width="14" height="12" viewBox="0 0 14 12"
    xmlns="http://www.w3.org/2000/svg">
    <path fill-rule="evenodd" clip-rule="evenodd" d="M2.35551 0.000528584C2.47915 0.00641503 2.59539 0.0611751 2.67865 0.152762L12.012 10.4194C12.0952 10.511 12.1387 10.6319 12.1328 10.7556C12.1269 10.8792 12.0722 10.9954 11.9806 11.0787C11.889 11.162 11.7681 11.2054 11.6445 11.1995C11.5208 11.1937 11.4046 11.1389 11.3213 11.0473L10.0371 9.63471C9.08072 10.0574 8.04563 10.2728 6.99998 10.2667C4.96544 10.2667 3.1166 9.49332 1.65337 8.03026C0.554722 6.93173 0.0607119 5.83616 0.0402036 5.79001C0.0136961 5.73035 0 5.66578 0 5.60049C0 5.5352 0.0136961 5.47063 0.0402036 5.41096C0.0807779 5.31973 0.991669 3.31558 3.11039 2.01527L1.98799 0.780642C1.90473 0.689056 1.86126 0.568144 1.86715 0.444507C1.87303 0.32087 1.92779 0.204636 2.01938 0.121374C2.11097 0.0381114 2.23188 -0.00535786 2.35551 0.000528584ZM5.91137 7.39623C6.23964 7.59512 6.61616 7.70021 6.99998 7.70006C7.36152 7.70036 7.71692 7.60675 8.0314 7.42839L5.2778 4.39945C5.05812 4.71419 4.92894 5.08314 4.90431 5.46617C4.87968 5.84921 4.96054 6.23166 5.13809 6.57195C5.31565 6.91224 5.5831 7.19733 5.91137 7.39623ZM12.3467 3.17028C13.4453 4.26905 13.9393 5.36485 13.9598 5.41093C13.9863 5.4706 14 5.53517 14 5.60046C14 5.66575 13.9863 5.73032 13.9598 5.78999C13.9353 5.84513 13.3446 7.15336 12.0138 8.34532C11.9221 8.42749 11.8016 8.47007 11.6785 8.46377C11.5555 8.45746 11.44 8.40278 11.3571 8.31165L5.44849 1.81216C5.39209 1.75011 5.35344 1.67401 5.33662 1.59187C5.3198 1.50972 5.32542 1.42456 5.35289 1.34534C5.38036 1.26612 5.42867 1.19576 5.49274 1.14167C5.5568 1.08757 5.63426 1.05174 5.71697 1.03793C6.14105 0.96784 6.57019 0.932858 7.00002 0.933338C9.03456 0.933338 10.8835 1.70688 12.3467 3.17028Z" />
</svg>
