<svg width="42" height="42" viewBox="0 0 42 42" fill="none" xmlns="http://www.w3.org/2000/svg">
<path fill-rule="evenodd" clip-rule="evenodd" d="M42 34C42 38.4183 38.4183 42 34 42L8 42C3.58173 42 3.35863e-06 38.4183 2.97237e-06 34L6.99382e-07 8C3.13124e-07 3.58172 3.58172 -3.13124e-07 8 -6.99382e-07L34 -2.97237e-06C38.4183 -3.35863e-06 42 3.58172 42 8L42 34Z" fill="#0981D8"/>
<path fill-rule="evenodd" clip-rule="evenodd" d="M18.6923 20.8462V20.3846C18.692 20.1399 18.5947 19.9053 18.4216 19.7322C18.2486 19.5592 18.014 19.4618 17.7692 19.4615H15.9231C15.6783 19.4618 15.4437 19.5592 15.2707 19.7322C15.0976 19.9053 15.0003 20.1399 15 20.3846V22.2308C15.0003 22.4755 15.0976 22.7101 15.2707 22.8832C15.4437 23.0562 15.6783 23.1536 15.9231 23.1538H17.7692C18.014 23.1536 18.2486 23.0562 18.4216 22.8832C18.5947 22.7101 18.692 22.4755 18.6923 22.2308V21.7692V20.8462Z" fill="white" fill-opacity="0.5"/>
<path fill-rule="evenodd" clip-rule="evenodd" d="M22.8462 18.5385V19.2308C22.8464 19.4755 22.9438 19.7101 23.1168 19.8832C23.2899 20.0562 23.5245 20.1536 23.7692 20.1538H26.0769C26.3217 20.1536 26.5563 20.0562 26.7293 19.8832C26.9024 19.7101 26.9997 19.4755 27 19.2308V16.9231C26.9997 16.6783 26.9024 16.4437 26.7293 16.2707C26.5563 16.0976 26.3217 16.0003 26.0769 16H23.7692C23.5245 16.0003 23.2899 16.0976 23.1168 16.2707C22.9438 16.4437 22.8464 16.6783 22.8462 16.9231V17.6154H22.1538C21.6644 17.6159 21.1951 17.8106 20.849 18.1567C20.5029 18.5028 20.3082 18.9721 20.3077 19.4615V20.8462H18.6923V21.7692H20.3077V23.1538C20.3082 23.6433 20.5029 24.1126 20.849 24.4587C21.1951 24.8048 21.6644 24.9994 22.1538 25H22.8462V25.6923C22.8464 25.937 22.9438 26.1717 23.1168 26.3447C23.2899 26.5178 23.5245 26.6151 23.7692 26.6154H26.0769C26.3217 26.6151 26.5563 26.5178 26.7293 26.3447C26.9024 26.1717 26.9997 25.937 27 25.6923V23.3846C26.9997 23.1399 26.9024 22.9053 26.7293 22.7322C26.5563 22.5592 26.3217 22.4618 26.0769 22.4615H23.7692C23.5245 22.4618 23.2899 22.5592 23.1168 22.7322C22.9438 22.9053 22.8464 23.1399 22.8462 23.3846V24.0769H22.1538C21.9091 24.0766 21.6745 23.9793 21.5014 23.8063C21.3284 23.6332 21.231 23.3986 21.2308 23.1538V19.4615C21.231 19.2168 21.3284 18.9822 21.5014 18.8091C21.6745 18.6361 21.9091 18.5387 22.1538 18.5385H22.8462Z" fill="white"/>
</svg>
