<svg width="12" height="12" viewBox="0 0 12 12" fill="none" xmlns="http://www.w3.org/2000/svg">
<path d="M2.34156 5.29481C2.41785 5.37109 2.51505 5.42304 2.62086 5.44408C2.72667 5.46513 2.83634 5.45432 2.93601 5.41304C3.03568 5.37175 3.12087 5.30184 3.18081 5.21214C3.24074 5.12244 3.27273 5.01698 3.27274 4.90909V3.27273H11.4545C11.5992 3.27273 11.7379 3.21527 11.8402 3.11297C11.9425 3.01068 12 2.87194 12 2.72728C12 2.58262 11.9425 2.44388 11.8402 2.34159C11.7379 2.2393 11.5992 2.18183 11.4545 2.18183H3.27274V0.545468C3.27273 0.437586 3.24074 0.332127 3.18081 0.242426C3.12087 0.152725 3.03568 0.0828115 2.93601 0.0415254C2.83634 0.00023919 2.72667 -0.0105654 2.62086 0.0104781C2.51505 0.0315217 2.41785 0.0834681 2.34156 0.159749L0.159751 2.34156C0.0574632 2.44387 0 2.58261 0 2.72728C0 2.87195 0.0574632 3.01069 0.159751 3.113L2.34156 5.29481Z" fill="white"/>
<path d="M11.8402 9.65792L9.65842 11.8397C9.58213 11.916 9.48494 11.968 9.37913 11.989C9.27332 12.01 9.16365 11.9992 9.06398 11.958C8.96431 11.9167 8.87912 11.8468 8.81918 11.7571C8.75924 11.6674 8.72725 11.5619 8.72725 11.454V9.81766H0.545453C0.40079 9.81766 0.262052 9.76019 0.15976 9.6579C0.0574673 9.5556 0 9.41687 0 9.2722C0 9.12754 0.0574673 8.9888 0.15976 8.88651C0.262052 8.78422 0.40079 8.72675 0.545453 8.72675H8.72725V7.09039C8.72725 6.98251 8.75924 6.87705 8.81918 6.78735C8.87912 6.69765 8.96431 6.62773 9.06398 6.58645C9.16365 6.54516 9.27332 6.53436 9.37913 6.5554C9.48494 6.57644 9.58213 6.62839 9.65842 6.70467L11.8402 8.88648C11.9425 8.98879 12 9.12753 12 9.2722C12 9.41687 11.9425 9.55562 11.8402 9.65792Z" fill="white" fill-opacity="0.5"/>
</svg>
