<svg width="12" height="8" viewBox="0 0 12 8" fill="none" xmlns="http://www.w3.org/2000/svg">
<path d="M5.62438 5.4642C6.15768 5.10996 6.56277 4.59343 6.77969 3.99106C6.9966 3.3887 7.01383 2.7325 6.82881 2.11958C6.6438 1.50666 6.26637 0.969594 5.75239 0.587857C5.23841 0.206121 4.61518 0 3.97495 0C3.33472 0 2.71149 0.206121 2.19751 0.587857C1.68353 0.969594 1.3061 1.50666 1.12109 2.11958C0.936072 2.7325 0.953297 3.3887 1.17022 3.99106C1.38713 4.59343 1.79222 5.10996 2.32552 5.4642C1.4164 5.79957 0.630662 6.4033 0.072461 7.19537C0.030553 7.2549 0.00579947 7.3248 0.000900936 7.39744C-0.0039976 7.47007 0.011147 7.54266 0.0446826 7.60728C0.0782182 7.6719 0.128857 7.72607 0.191073 7.76387C0.253289 7.80168 0.324693 7.82167 0.397495 7.82167L7.55224 7.8214C7.62505 7.8214 7.69645 7.8014 7.75866 7.76359C7.82088 7.72578 7.87151 7.6716 7.90504 7.60698C7.93857 7.54236 7.9537 7.46977 7.94879 7.39713C7.94389 7.3245 7.91912 7.2546 7.8772 7.19508C7.31902 6.40315 6.53338 5.79953 5.62438 5.4642Z" fill="white"/>
<path d="M11.9275 7.1955C11.3693 6.40356 10.5837 5.79994 9.67465 5.46461C10.2657 5.07119 10.6969 4.47976 10.8906 3.79674C11.0844 3.11372 11.0281 2.38396 10.7318 1.73878C10.4354 1.0936 9.91855 0.575367 9.27415 0.277332C8.62976 -0.0207037 7.90015 -0.0789699 7.21662 0.113018C7.15457 0.13047 7.09769 0.162752 7.05089 0.207082C7.00409 0.251411 6.96878 0.306457 6.94799 0.367474C6.9272 0.428491 6.92157 0.493648 6.93157 0.557328C6.94158 0.621007 6.96692 0.681298 7.00541 0.733003C7.45473 1.33657 7.71303 2.06084 7.74704 2.81252C7.78105 3.56419 7.58921 4.30884 7.19624 4.95051C7.14434 5.03513 7.12599 5.13611 7.14479 5.23359C7.1636 5.33106 7.21819 5.41797 7.29784 5.47722C7.44854 5.58937 7.59353 5.709 7.73226 5.83567C7.73943 5.84346 7.74666 5.85121 7.75456 5.85853C8.28507 6.34898 8.71504 6.93802 9.02046 7.59278C9.05246 7.66131 9.10335 7.71928 9.16715 7.7599C9.23095 7.80052 9.30501 7.82209 9.38065 7.82208L11.6026 7.82181C11.6754 7.8218 11.7468 7.8018 11.809 7.76398C11.8712 7.72617 11.9218 7.672 11.9553 7.60738C11.9888 7.54276 12.004 7.47017 11.9991 7.39754C11.9942 7.32491 11.9694 7.25502 11.9275 7.19549L11.9275 7.1955Z" fill="white" fill-opacity="0.5"/>
</svg>
