<svg width="12" height="12" viewBox="0 0 12 12" fill="none" xmlns="http://www.w3.org/2000/svg">
<path d="M11.8619 4.43968C11.849 4.38043 11.8235 4.32461 11.7872 4.27594C11.7508 4.22727 11.7044 4.18687 11.6512 4.15745L10.3779 3.45419C10.3074 3.31828 10.2304 3.18531 10.1476 3.05665L10.1721 1.60671C10.1731 1.54607 10.1611 1.48591 10.1369 1.43024C10.1127 1.37458 10.0768 1.32469 10.0317 1.28392C9.39776 0.710266 8.64678 0.27957 7.83011 0.0212786C7.77208 0.00280106 7.71074 -0.00314814 7.65021 0.0038281C7.58968 0.0108043 7.53134 0.0305456 7.47908 0.0617343L6.23028 0.807244C6.07665 0.79996 5.92234 0.79983 5.7691 0.806881L4.51925 0.0607458C4.46697 0.0295443 4.4086 0.00979831 4.34804 0.00282636C4.28748 -0.00414559 4.22612 0.00181695 4.16806 0.0203158C3.35175 0.279743 2.60137 0.711457 1.96818 1.28595C1.92308 1.32672 1.88723 1.3766 1.86304 1.43225C1.83885 1.4879 1.82686 1.54804 1.82789 1.60866L1.85239 3.05741C1.76934 3.18606 1.69207 3.31895 1.62149 3.45458L0.347112 4.15844C0.293812 4.18788 0.247441 4.22829 0.211094 4.27698C0.174748 4.32568 0.149264 4.38152 0.136345 4.4408C-0.0460286 5.27386 -0.0454398 6.13627 0.138071 6.96908C0.151011 7.02833 0.176504 7.08415 0.212849 7.13282C0.249194 7.18149 0.295555 7.22188 0.348838 7.25131L1.62215 7.95457C1.69262 8.09048 1.76963 8.22345 1.85242 8.3521L1.82789 9.80204C1.82687 9.86269 1.83886 9.92285 1.86307 9.97851C1.88728 10.0342 1.92315 10.0841 1.96829 10.1248C2.60224 10.6985 3.35322 11.1292 4.16989 11.3875C4.22792 11.406 4.28926 11.4119 4.34979 11.4049C4.41032 11.3979 4.46866 11.3782 4.52092 11.347L5.76972 10.6015C5.92333 10.6088 6.07761 10.6089 6.2309 10.6019L7.48075 11.348C7.53303 11.3792 7.5914 11.399 7.65196 11.4059C7.71252 11.4129 7.77388 11.4069 7.83194 11.3884C8.64825 11.129 9.39863 10.6973 10.0318 10.1228C10.0769 10.082 10.1128 10.0322 10.137 9.97651C10.1612 9.92086 10.1731 9.86071 10.1721 9.80009L10.1476 8.35135C10.2307 8.2227 10.3079 8.0898 10.3785 7.95418L11.6529 7.25032C11.7062 7.22088 11.7526 7.18046 11.7889 7.13177C11.8253 7.08308 11.8507 7.02723 11.8637 6.96796C12.046 6.1349 12.0454 5.27249 11.8619 4.43968ZM8.3564 5.70438C8.3564 6.16806 8.2182 6.62133 7.95928 7.00687C7.70035 7.39241 7.33233 7.6929 6.90176 7.87034C6.47118 8.04779 5.99739 8.09421 5.54029 8.00375C5.08319 7.91329 4.66332 7.69001 4.33377 7.36214C4.00422 7.03426 3.7798 6.61653 3.68888 6.16175C3.59795 5.70698 3.64462 5.2356 3.82297 4.80721C4.00132 4.37882 4.30335 4.01267 4.69085 3.75506C5.07836 3.49746 5.53395 3.35996 6 3.35996C6.62474 3.36066 7.22369 3.60789 7.66545 4.0474C8.10721 4.48691 8.3557 5.08282 8.3564 5.70438Z" fill="white"/>
<ellipse cx="5.99995" cy="5.70438" rx="1.72993" ry="1.71898" fill="white" fill-opacity="0.5"/>
</svg>
