<svg width="12" height="11" viewBox="0 0 12 11" fill="none" xmlns="http://www.w3.org/2000/svg">
<path fill-rule="evenodd" clip-rule="evenodd" d="M0.888889 9.33333H1.77778V6.22222H4V9.33333H4.88889V3.55556H7.11111V2.66667H4.44444C4.32657 2.66667 4.21353 2.71349 4.13018 2.79684C4.04683 2.88019 4 2.99324 4 3.11111V5.33333H1.33333C1.21546 5.33333 1.10241 5.38016 1.01907 5.46351C0.935716 5.54686 0.88889 5.6599 0.888889 5.77778V9.33333Z" fill="white" fill-opacity="0.5"/>
<path fill-rule="evenodd" clip-rule="evenodd" d="M11.1111 9.33333H11.5556C11.6734 9.33333 11.7865 9.38016 11.8698 9.46351C11.9532 9.54686 12 9.6599 12 9.77778C12 9.89565 11.9532 10.0087 11.8698 10.092C11.7865 10.1754 11.6734 10.2222 11.5556 10.2222H0.444444C0.32657 10.2222 0.213524 10.1754 0.130175 10.092C0.0468252 10.0087 0 9.89565 0 9.77778C0 9.6599 0.0468252 9.54686 0.130175 9.46351C0.213524 9.38016 0.32657 9.33333 0.444444 9.33333H0.888889H1.77778H4H4.88889H7.11111V3.55556V2.66667V0.444444C7.11111 0.326571 7.15794 0.213525 7.24129 0.130176C7.32464 0.0468269 7.43768 1.17872e-06 7.55556 0H10.6667C10.7845 1.17872e-06 10.8976 0.0468269 10.9809 0.130176C11.0643 0.213525 11.1111 0.326571 11.1111 0.444444V9.33333Z" fill="white"/>
</svg>
