<svg width="12" height="11" viewBox="0 0 12 11" fill="none" xmlns="http://www.w3.org/2000/svg">
<path fill-rule="evenodd" clip-rule="evenodd" d="M3.69231 4.84615V4.38462C3.69203 4.13989 3.59469 3.90526 3.42164 3.73221C3.24859 3.55916 3.01396 3.46182 2.76923 3.46154H0.923077C0.678348 3.46182 0.443722 3.55916 0.270672 3.73221C0.0976223 3.90526 0.000279887 4.13989 0 4.38462V6.23077C0.000279887 6.4755 0.0976223 6.71012 0.270672 6.88317C0.443722 7.05622 0.678348 7.15357 0.923077 7.15385H2.76923C3.01396 7.15357 3.24859 7.05622 3.42164 6.88317C3.59469 6.71012 3.69203 6.4755 3.69231 6.23077V5.76923V4.84615Z" fill="white" fill-opacity="0.5"/>
<path fill-rule="evenodd" clip-rule="evenodd" d="M7.84615 2.53846V3.23077C7.84643 3.4755 7.94378 3.71012 8.11683 3.88317C8.28988 4.05622 8.5245 4.15357 8.76923 4.15385H11.0769C11.3217 4.15357 11.5563 4.05622 11.7293 3.88317C11.9024 3.71012 11.9997 3.4755 12 3.23077V0.923077C11.9997 0.678348 11.9024 0.443722 11.7293 0.270672C11.5563 0.0976223 11.3217 0.000279887 11.0769 0H8.76923C8.5245 0.000279887 8.28988 0.0976223 8.11683 0.270672C7.94378 0.443722 7.84643 0.678348 7.84615 0.923077V1.61538H7.15385C6.66439 1.61594 6.19513 1.81062 5.84903 2.15672C5.50293 2.50282 5.30825 2.97208 5.30769 3.46154V4.84615H3.69231V5.76923H5.30769V7.15385C5.30825 7.64331 5.50293 8.11256 5.84903 8.45866C6.19513 8.80476 6.66439 8.99945 7.15385 9H7.84615V9.69231C7.84643 9.93704 7.94378 10.1717 8.11683 10.3447C8.28988 10.5178 8.5245 10.6151 8.76923 10.6154H11.0769C11.3217 10.6151 11.5563 10.5178 11.7293 10.3447C11.9024 10.1717 11.9997 9.93704 12 9.69231V7.38462C11.9997 7.13989 11.9024 6.90526 11.7293 6.73221C11.5563 6.55916 11.3217 6.46182 11.0769 6.46154H8.76923C8.5245 6.46182 8.28988 6.55916 8.11683 6.73221C7.94378 6.90526 7.84643 7.13989 7.84615 7.38462V8.07692H7.15385C6.90912 8.07664 6.67449 7.9793 6.50144 7.80625C6.32839 7.6332 6.23105 7.39858 6.23077 7.15385V3.46154C6.23105 3.21681 6.32839 2.98218 6.50144 2.80913C6.67449 2.63608 6.90912 2.53874 7.15385 2.53846H7.84615Z" fill="white"/>
</svg>
