<svg width="12" height="12" viewBox="0 0 12 12" fill="none" xmlns="http://www.w3.org/2000/svg">
<path d="M5.43037 1.40198L3.05301 0.0582586C2.98496 0.0200615 2.90823 0 2.83019 0C2.75215 0 2.67542 0.0200615 2.60737 0.0582586L0.230009 1.40198C0.160249 1.44149 0.10221 1.49879 0.0618059 1.56804C0.0214013 1.63729 7.50733e-05 1.71601 0 1.79618V4.47538C7.50733e-05 4.55556 0.0214013 4.63428 0.0618059 4.70353C0.10221 4.77278 0.160249 4.83008 0.230009 4.86959L2.60737 6.21331C2.67542 6.25152 2.75215 6.27158 2.83019 6.27158C2.90823 6.27158 2.98496 6.25152 3.05301 6.21331L5.43037 4.86959C5.50013 4.83008 5.55817 4.77277 5.59857 4.70353C5.63898 4.63428 5.6603 4.55556 5.66038 4.47538V1.79618C5.6603 1.71601 5.63898 1.63729 5.59857 1.56804C5.55817 1.49879 5.50013 1.44149 5.43037 1.40198ZM2.83019 4.15465C2.62868 4.15465 2.43169 4.0949 2.26414 3.98294C2.09658 3.87099 1.96599 3.71186 1.88888 3.52569C1.81176 3.33951 1.79159 3.13465 1.8309 2.93701C1.87021 2.73937 1.96725 2.55783 2.10974 2.41534C2.25223 2.27284 2.43378 2.17581 2.63142 2.13649C2.82906 2.09718 3.03392 2.11736 3.22009 2.19447C3.40627 2.27159 3.56539 2.40218 3.67735 2.56973C3.7893 2.73728 3.84906 2.93427 3.84906 3.13578C3.84875 3.40591 3.74131 3.66489 3.5503 3.8559C3.35929 4.0469 3.10032 4.15435 2.83019 4.15465Z" fill="white"/>
<path d="M11.77 1.40198L9.39261 0.0582586C9.32456 0.0200615 9.24783 0 9.16979 0C9.09175 0 9.01502 0.0200615 8.94697 0.0582586L6.56961 1.40198C6.49985 1.44149 6.44181 1.49879 6.40141 1.56804C6.361 1.63729 6.33967 1.71601 6.3396 1.79618V4.47538C6.33967 4.55556 6.361 4.63428 6.40141 4.70353C6.44181 4.77278 6.49985 4.83008 6.56961 4.86959L8.94697 6.21331C9.01502 6.25152 9.09175 6.27158 9.16979 6.27158C9.24783 6.27158 9.32456 6.25152 9.39261 6.21331L11.77 4.86959C11.8397 4.83008 11.8978 4.77277 11.9382 4.70353C11.9786 4.63428 11.9999 4.55556 12 4.47538V1.79618C11.9999 1.71601 11.9786 1.63729 11.9382 1.56804C11.8978 1.49879 11.8397 1.44149 11.77 1.40198ZM9.16979 4.15465C8.96828 4.15465 8.77129 4.0949 8.60374 3.98294C8.43618 3.87099 8.30559 3.71186 8.22848 3.52569C8.15136 3.33951 8.13118 3.13465 8.1705 2.93701C8.20981 2.73937 8.30685 2.55783 8.44934 2.41534C8.59183 2.27284 8.77338 2.17581 8.97102 2.13649C9.16866 2.09718 9.37352 2.11736 9.55969 2.19447C9.74587 2.27159 9.90499 2.40218 10.0169 2.56973C10.1289 2.73728 10.1887 2.93427 10.1887 3.13578C10.1884 3.40591 10.0809 3.66489 9.8899 3.8559C9.69889 4.0469 9.43992 4.15435 9.16979 4.15465Z" fill="white"/>
<path d="M8.60029 6.83557L6.22293 5.49185C6.15488 5.45366 6.07815 5.43359 6.00011 5.43359C5.92207 5.43359 5.84534 5.45366 5.77729 5.49185L3.39993 6.83557C3.33017 6.87508 3.27213 6.93238 3.23173 7.00163C3.19132 7.07088 3.17 7.1496 3.16992 7.22978V9.90898C3.17 9.98915 3.19132 10.0679 3.23173 10.1371C3.27213 10.2064 3.33017 10.2637 3.39993 10.3032L5.77729 11.6469C5.84534 11.6851 5.92207 11.7052 6.00011 11.7052C6.07815 11.7052 6.15488 11.6851 6.22293 11.6469L8.60029 10.3032C8.67005 10.2637 8.72809 10.2064 8.76849 10.1371C8.8089 10.0679 8.83022 9.98915 8.8303 9.90898V7.22978C8.83022 7.1496 8.8089 7.07088 8.76849 7.00163C8.72809 6.93239 8.67005 6.87508 8.60029 6.83557ZM6.00011 9.58824C5.7986 9.58824 5.60161 9.52849 5.43406 9.41653C5.26651 9.30458 5.13592 9.14545 5.0588 8.95928C4.98168 8.77311 4.96151 8.56825 5.00082 8.37061C5.04013 8.17297 5.13717 7.99142 5.27966 7.84893C5.42215 7.70644 5.6037 7.6094 5.80134 7.57009C5.99898 7.53077 6.20384 7.55095 6.39001 7.62807C6.57619 7.70518 6.73531 7.83577 6.84727 8.00332C6.95922 8.17088 7.01898 8.36786 7.01898 8.56938C7.01867 8.8395 6.91123 9.09848 6.72022 9.28949C6.52921 9.4805 6.27024 9.58794 6.00011 9.58824Z" fill="white" fill-opacity="0.5"/>
</svg>
