<svg width="12" height="12" viewBox="0 0 12 12" fill="none" xmlns="http://www.w3.org/2000/svg">
<path d="M5.99992 5.33333C7.47268 5.33333 8.66659 4.13943 8.66659 2.66667C8.66659 1.19391 7.47268 0 5.99992 0C4.52716 0 3.33325 1.19391 3.33325 2.66667C3.33325 4.13943 4.52716 5.33333 5.99992 5.33333Z" fill="white" fill-opacity="0.5"/>
<path d="M9.33317 11.1107C10.8059 11.1107 11.9998 9.91677 11.9998 8.44401C11.9998 6.97125 10.8059 5.77734 9.33317 5.77734C7.86041 5.77734 6.6665 6.97125 6.6665 8.44401C6.6665 9.91677 7.86041 11.1107 9.33317 11.1107Z" fill="white"/>
<path d="M2.66667 11.1107C4.13943 11.1107 5.33333 9.91677 5.33333 8.44401C5.33333 6.97125 4.13943 5.77734 2.66667 5.77734C1.19391 5.77734 0 6.97125 0 8.44401C0 9.91677 1.19391 11.1107 2.66667 11.1107Z" fill="white"/>
</svg>
