<svg width="11" height="12" viewBox="0 0 11 12" fill="none" xmlns="http://www.w3.org/2000/svg">
<path fill-rule="evenodd" clip-rule="evenodd" d="M8.76923 11.0769H0.923077C0.660447 11.0881 0.135188 11.2612 0.135188 11.8648C0.221742 11.9514 0.339133 12 0.461538 12H8.76923C8.89164 12 9.00903 11.9514 9.09559 11.8648C9.18214 11.7783 9.23077 11.6609 9.23077 11.5385C9.23077 11.4161 9.18214 11.2987 9.09559 11.2121C9.00903 11.1255 8.89164 11.0769 8.76923 11.0769Z" fill="white" fill-opacity="0.5"/>
<path fill-rule="evenodd" clip-rule="evenodd" d="M10.1538 9.69231V0.461538C10.1538 0.339133 10.1052 0.221742 10.0187 0.135188C9.9321 0.0486341 9.81471 5.96685e-06 9.69231 0H1.84615C1.3567 0.000559927 0.887444 0.195245 0.541344 0.541344C0.195245 0.887444 0.000559927 1.3567 0 1.84615V11.5385C5.96685e-06 11.6609 0.0486342 11.7783 0.135188 11.8648C0.135188 11.2612 0.660447 11.0881 0.923077 11.0769C0.923357 10.8322 1.0207 10.5976 1.19375 10.4245C1.3668 10.2515 1.60142 10.1541 1.84615 10.1538H9.69231C9.81471 10.1538 9.9321 10.1052 10.0187 10.0187C10.1052 9.9321 10.1538 9.81471 10.1538 9.69231Z" fill="white"/>
</svg>
