<svg width="12" height="8" viewBox="0 0 12 8" fill="none" xmlns="http://www.w3.org/2000/svg">
<path d="M6.53613 1.17152C6.53613 1.06801 6.57725 0.968748 6.65044 0.895558C6.72363 0.822369 6.8229 0.781251 6.9264 0.78125H11.6096C11.7131 0.78125 11.8124 0.822368 11.8856 0.895557C11.9588 0.968747 11.9999 1.06801 11.9999 1.17152C11.9999 1.27503 11.9588 1.37429 11.8856 1.44748C11.8124 1.52067 11.7131 1.56179 11.6096 1.56179H6.9264C6.8229 1.56179 6.72363 1.52067 6.65044 1.44748C6.57725 1.37429 6.53613 1.27502 6.53613 1.17152ZM11.6096 3.12287H6.9264C6.8229 3.12287 6.72363 3.16398 6.65044 3.23717C6.57725 3.31036 6.53613 3.40963 6.53613 3.51313C6.53613 3.61664 6.57725 3.71591 6.65044 3.7891C6.72363 3.86229 6.8229 3.9034 6.9264 3.9034H11.6096C11.7131 3.9034 11.8124 3.86229 11.8856 3.7891C11.9588 3.71591 11.9999 3.61664 11.9999 3.51313C11.9999 3.40963 11.9588 3.31036 11.8856 3.23717C11.8124 3.16398 11.7131 3.12287 11.6096 3.12287ZM11.6096 5.46448H8.09721C7.9937 5.46448 7.89444 5.5056 7.82125 5.57879C7.74806 5.65198 7.70694 5.75125 7.70694 5.85475C7.70694 5.95826 7.74806 6.05752 7.82125 6.13071C7.89444 6.2039 7.9937 6.24502 8.09721 6.24502H11.6096C11.7131 6.24502 11.8124 6.2039 11.8856 6.13071C11.9588 6.05752 11.9999 5.95826 11.9999 5.85475C11.9999 5.75125 11.9588 5.65198 11.8856 5.57879C11.8124 5.5056 11.7131 5.46448 11.6096 5.46448Z" fill="white" fill-opacity="0.5"/>
<path d="M4.83417 4.20347C5.22365 3.9064 5.51016 3.49466 5.65338 3.02622C5.79659 2.55778 5.78929 2.05622 5.63251 1.59214C5.47573 1.12807 5.17736 0.724843 4.77939 0.439231C4.38143 0.153618 3.90392 0 3.41408 0C2.92423 0 2.44672 0.153618 2.04876 0.439231C1.65079 0.724843 1.35242 1.12807 1.19564 1.59214C1.03886 2.05622 1.03156 2.55778 1.17477 3.02622C1.31799 3.49466 1.6045 3.9064 1.99398 4.20347C1.50855 4.41756 1.07801 4.73898 0.734759 5.14352C0.39151 5.54807 0.144499 6.02521 0.012319 6.53902C-0.00252176 6.59668 -0.00397397 6.65697 0.00807356 6.71528C0.0201211 6.77358 0.045349 6.82836 0.0818261 6.87541C0.118303 6.92247 0.165063 6.96055 0.218525 6.98675C0.271988 7.01295 0.330736 7.02658 0.390274 7.02657H6.43788C6.49741 7.02658 6.55616 7.01295 6.60962 6.98675C6.66309 6.96055 6.70985 6.92247 6.74632 6.87541C6.7828 6.82836 6.80803 6.77358 6.82008 6.71528C6.83212 6.65697 6.83067 6.59668 6.81583 6.53902C6.68365 6.02521 6.43664 5.54807 6.09339 5.14352C5.75014 4.73898 5.3196 4.41756 4.83417 4.20347Z" fill="white"/>
</svg>
