<svg width="12" height="12" viewBox="0 0 12 12" fill="none" xmlns="http://www.w3.org/2000/svg">
<path d="M12 1V2.75C12 2.88261 11.9473 3.00979 11.8536 3.10355C11.7598 3.19732 11.6326 3.25 11.5 3.25C11.3674 3.25 11.2402 3.19732 11.1464 3.10355C11.0527 3.00979 11 2.88261 11 2.75V1H9.25C9.11739 1 8.99021 0.947321 8.89645 0.853553C8.80268 0.759785 8.75 0.632608 8.75 0.5C8.75 0.367392 8.80268 0.240215 8.89645 0.146447C8.99021 0.0526785 9.11739 0 9.25 0H11C11.2651 0.000303211 11.5193 0.105757 11.7068 0.293228C11.8942 0.480699 11.9997 0.734877 12 1ZM11.5 8.75C11.3674 8.75 11.2402 8.80268 11.1464 8.89645C11.0527 8.99022 11 9.11739 11 9.25V11H9.25C9.11739 11 8.99021 11.0527 8.89645 11.1464C8.80268 11.2402 8.75 11.3674 8.75 11.5C8.75 11.6326 8.80268 11.7598 8.89645 11.8536C8.99021 11.9473 9.11739 12 9.25 12H11C11.2651 11.9997 11.5193 11.8942 11.7068 11.7068C11.8942 11.5193 11.9997 11.2651 12 11V9.25C12 9.11739 11.9473 8.99022 11.8536 8.89645C11.7598 8.80268 11.6326 8.75 11.5 8.75ZM2.75 11H1V9.25C1 9.11739 0.947321 8.99021 0.853553 8.89645C0.759785 8.80268 0.632608 8.75 0.5 8.75C0.367392 8.75 0.240215 8.80268 0.146447 8.89645C0.0526785 8.99021 0 9.11739 0 9.25V11C0.000303211 11.2651 0.105757 11.5193 0.293228 11.7068C0.480699 11.8942 0.734877 11.9997 1 12H2.75C2.88261 12 3.00979 11.9473 3.10355 11.8536C3.19732 11.7598 3.25 11.6326 3.25 11.5C3.25 11.3674 3.19732 11.2402 3.10355 11.1464C3.00979 11.0527 2.88261 11 2.75 11ZM0.5 3.25C0.632608 3.25 0.759784 3.19732 0.853552 3.10355C0.94732 3.00978 0.999999 2.88261 1 2.75V1H2.75C2.88261 1 3.00979 0.947321 3.10355 0.853553C3.19732 0.759785 3.25 0.632608 3.25 0.5C3.25 0.367392 3.19732 0.240215 3.10355 0.146447C3.00979 0.0526785 2.88261 0 2.75 0H1C0.734877 0.000303211 0.480699 0.105757 0.293228 0.293228C0.105757 0.480699 0.000303211 0.734877 0 1V2.75C1.32606e-06 2.88261 0.0526802 3.00978 0.146448 3.10355C0.240216 3.19732 0.367392 3.25 0.5 3.25Z" fill="white" fill-opacity="0.5"/>
<path d="M4.3164 6.84606C3.42544 7.23016 2.69287 7.90776 2.24058 8.76612C2.2003 8.84231 2.1804 8.92763 2.18281 9.01378C2.18522 9.09993 2.20987 9.184 2.25435 9.25782C2.29883 9.33164 2.36164 9.39271 2.43668 9.4351C2.51172 9.4775 2.59644 9.49977 2.68263 9.49976H9.31758C9.40376 9.49977 9.48849 9.4775 9.56353 9.4351C9.63857 9.39271 9.70138 9.33164 9.74586 9.25782C9.79034 9.184 9.81498 9.09993 9.81739 9.01378C9.81981 8.92763 9.79991 8.84231 9.75962 8.76612C9.30734 7.90776 8.57477 7.23016 7.6838 6.84606C8.05663 6.50639 8.31799 6.06189 8.43357 5.57095C8.54915 5.08002 8.51354 4.56561 8.33142 4.09528C8.14929 3.62496 7.82917 3.22072 7.41309 2.93566C6.99702 2.6506 6.50446 2.49805 6.0001 2.49805C5.49575 2.49805 5.00318 2.6506 4.58711 2.93566C4.17104 3.22072 3.85092 3.62496 3.66879 4.09528C3.48667 4.56561 3.45105 5.08002 3.56663 5.57095C3.68221 6.06189 3.94358 6.50639 4.3164 6.84606Z" fill="white"/>
</svg>
