<svg width="12" height="11" viewBox="0 0 12 11" fill="none" xmlns="http://www.w3.org/2000/svg">
<path d="M11 0H1C0.734877 0.000303211 0.480699 0.105757 0.293228 0.293228C0.105757 0.480699 0.000303211 0.734877 0 1V4C0.000303211 4.26512 0.105757 4.5193 0.293228 4.70677C0.480699 4.89424 0.734877 4.9997 1 5H11C11.2651 4.9997 11.5193 4.89424 11.7068 4.70677C11.8942 4.5193 11.9997 4.26512 12 4V1C11.9997 0.734877 11.8942 0.480699 11.7068 0.293228C11.5193 0.105757 11.2651 0.000303211 11 0ZM9.25003 3.25C9.10169 3.25 8.95669 3.20601 8.83335 3.1236C8.71002 3.04119 8.61389 2.92406 8.55712 2.78701C8.50036 2.64997 8.4855 2.49917 8.51444 2.35368C8.54338 2.2082 8.61481 2.07456 8.7197 1.96967C8.82459 1.86478 8.95823 1.79335 9.10371 1.76441C9.2492 1.73547 9.4 1.75032 9.53704 1.80709C9.67409 1.86386 9.79122 1.95999 9.87363 2.08332C9.95604 2.20666 10 2.35166 10 2.5C10 2.69891 9.92101 2.88968 9.78036 3.03033C9.63971 3.17098 9.44894 3.25 9.25003 3.25Z" fill="white" fill-opacity="0.5"/>
<path d="M11 6H1C0.734877 6.0003 0.480699 6.10576 0.293228 6.29323C0.105757 6.4807 0.000303211 6.73488 0 7V10C0.000303211 10.2651 0.105757 10.5193 0.293228 10.7068C0.480699 10.8942 0.734877 10.9997 1 11H11C11.2651 10.9997 11.5193 10.8942 11.7068 10.7068C11.8942 10.5193 11.9997 10.2651 12 10V7C11.9997 6.73488 11.8942 6.4807 11.7068 6.29323C11.5193 6.10576 11.2651 6.0003 11 6ZM9.25003 9.25C9.10169 9.25 8.95669 9.20601 8.83335 9.1236C8.71002 9.04119 8.61389 8.92406 8.55712 8.78701C8.50036 8.64997 8.4855 8.49917 8.51444 8.35368C8.54338 8.2082 8.61481 8.07456 8.7197 7.96967C8.82459 7.86478 8.95823 7.79335 9.10371 7.76441C9.2492 7.73547 9.4 7.75033 9.53704 7.80709C9.67409 7.86386 9.79122 7.95999 9.87363 8.08332C9.95604 8.20666 10 8.35166 10 8.5C10 8.69891 9.92101 8.88968 9.78036 9.03033C9.63971 9.17098 9.44894 9.25 9.25003 9.25Z" fill="white"/>
</svg>
