<svg width="12" height="12" viewBox="0 0 12 12" fill="none" xmlns="http://www.w3.org/2000/svg">
<path d="M5.64648 7.85358L3.02148 5.22931C2.95154 5.15939 2.90391 5.07029 2.8846 4.97329C2.8653 4.87629 2.87519 4.77575 2.91303 4.68438C2.95087 4.593 3.01496 4.5149 3.09719 4.45995C3.17942 4.405 3.2761 4.37567 3.375 4.37567L5.5 4.37567L5.5 0.5C5.5 0.367391 5.55268 0.240214 5.64645 0.146446C5.74021 0.0526781 5.86739 -2.68065e-07 6 -2.62268e-07C6.13261 -2.56472e-07 6.25979 0.0526781 6.35355 0.146446C6.44732 0.240215 6.5 0.367392 6.5 0.5L6.5 4.37567L8.625 4.37567C8.7239 4.37567 8.82058 4.405 8.90281 4.45995C8.98504 4.5149 9.04913 4.593 9.08697 4.68438C9.12481 4.77575 9.13471 4.8763 9.1154 4.9733C9.0961 5.07029 9.04846 5.15939 8.97852 5.22931L6.35352 7.85358C6.25975 7.94733 6.13259 7.99999 6 7.99999C5.86741 7.99999 5.74025 7.94733 5.64648 7.85358ZM12 11L12 7.5C12 7.36739 11.9473 7.24021 11.8536 7.14645C11.7598 7.05268 11.6326 7 11.5 7C11.3674 7 11.2402 7.05268 11.1464 7.14645C11.0527 7.24021 11 7.36739 11 7.5L11 11L1 11L1 7.5C1 7.36739 0.947322 7.24021 0.853553 7.14645C0.759785 7.05268 0.632608 7 0.5 7C0.367391 7 0.240214 7.05268 0.146446 7.14645C0.0526778 7.24021 -3.22039e-07 7.36739 -3.27835e-07 7.5L-4.80825e-07 11C0.000302776 11.2651 0.105757 11.5193 0.293228 11.7068C0.480698 11.8942 0.734876 11.9997 0.999999 12L11 12C11.2651 11.9997 11.5193 11.8942 11.7068 11.7068C11.8942 11.5193 11.9997 11.2651 12 11Z" fill="white"/>
</svg>
