<svg width="12" height="12" viewBox="0 0 12 12" fill="none" xmlns="http://www.w3.org/2000/svg">
<path fill-rule="evenodd" clip-rule="evenodd" d="M7.21425 9.0045H4.785C4.62525 9.0045 4.49625 8.85375 4.49625 8.6685C4.49625 8.48325 4.62525 8.3325 4.785 8.3325L5.25 8.25V6L4.785 5.913C4.62525 5.913 4.49625 5.76225 4.49625 5.577C4.49625 5.39175 4.62525 5.241 4.785 5.241H6.6705C6.72825 5.241 6.747 5.217 6.75525 5.1975C6.753 5.20875 6.75 5.21925 6.75 5.25V8.25L7.21425 8.3325C7.374 8.3325 7.50375 8.48325 7.50375 8.6685C7.50375 8.85375 7.374 9.0045 7.21425 9.0045ZM5.25 3H5.985C5.99025 3 5.99475 2.997 6 2.997C6.00525 2.997 6.00975 3 6.015 3H6.75V3.705C6.75075 3.7215 6.759 3.735 6.759 3.75075C6.759 3.76725 6.75075 3.78075 6.75 3.7965V4.5H6.02475C6.01575 4.50075 6.00825 4.50525 6 4.50525C5.991 4.50525 5.9835 4.50075 5.97525 4.5H5.25V3.79575C5.2485 3.78 5.24025 3.76725 5.24025 3.75075C5.24025 3.735 5.2485 3.7215 5.25 3.70575V3ZM6 0C2.68575 0 0 2.6865 0 6C0 9.3135 2.68575 12 6 12C9.3135 12 12 9.3135 12 6C12 2.6865 9.3135 0 6 0Z" fill="white"/>
</svg>
