<svg width="12" height="12" viewBox="0 0 12 12" fill="none" xmlns="http://www.w3.org/2000/svg">
<path d="M10.7801 7.25957C10.1874 7.82527 9.43166 8.20709 8.61065 8.35564C7.78963 8.50419 6.94111 8.41264 6.17483 8.09282L3.1731 11.4318C3.16575 11.44 3.15811 11.4479 3.15018 11.4555C2.80398 11.7878 2.33461 11.9744 1.84526 11.9743C1.35591 11.9741 0.886632 11.7873 0.540606 11.4549C0.194581 11.1224 0.000128497 10.6715 6.36619e-08 10.2014C-0.00012837 9.73122 0.194077 9.28025 0.539921 8.94762C0.547864 8.93999 0.556115 8.93263 0.564592 8.92554L4.03988 6.04148C3.70599 5.30961 3.60842 4.4983 3.75981 3.71256C3.9112 2.92681 4.30458 2.20282 4.88902 1.63429C5.47347 1.06575 6.22208 0.678857 7.03795 0.523678C7.85382 0.3685 8.69939 0.452182 9.4652 0.763895C9.53478 0.79226 9.59604 0.836604 9.64362 0.893033C9.69119 0.949462 9.72361 1.01625 9.73804 1.08753C9.75247 1.15881 9.74847 1.23241 9.72637 1.30186C9.70428 1.3713 9.66478 1.43448 9.61134 1.48583L7.36569 3.64341L7.58322 4.68837L8.6708 4.89737L10.9165 2.73974C10.9699 2.68841 11.0357 2.65047 11.108 2.62925C11.1802 2.60804 11.2568 2.60419 11.331 2.61806C11.4052 2.63192 11.4747 2.66307 11.5334 2.70878C11.5922 2.75448 11.6383 2.81334 11.6679 2.88018C11.9929 3.6117 12.0821 4.4201 11.9238 5.20083C11.7656 5.98157 11.3672 6.69873 10.7801 7.25957V7.25957Z" fill="white"/>
</svg>
