<svg width="12" height="12" viewBox="0 0 12 12" fill="none" xmlns="http://www.w3.org/2000/svg">
<path d="M9.74975 11.999C10.1733 11.9991 10.5883 11.8796 10.9469 11.6543C11.3056 11.429 11.5933 11.1071 11.7771 10.7255C11.9609 10.3439 12.0333 9.91817 11.9859 9.4973C11.9384 9.07642 11.7732 8.67747 11.5091 8.34635C11.245 8.01522 10.8928 7.76537 10.493 7.62553C10.0932 7.48569 9.66207 7.46155 9.24916 7.55587C8.83626 7.65019 8.45836 7.85915 8.15895 8.15871C7.85953 8.45827 7.65075 8.83627 7.55663 9.24922L7.49991 9.24922C7.23481 9.24891 6.98066 9.14347 6.79321 8.95601C6.60575 8.76856 6.50031 8.51441 6.5 8.24931L6.49991 3.74969C6.49991 3.61838 6.52577 3.48835 6.57602 3.36704C6.62627 3.24572 6.69992 3.13549 6.79277 3.04264C6.88563 2.94979 6.99586 2.87614 7.11717 2.82589C7.23849 2.77564 7.36851 2.74977 7.49982 2.74977L7.55663 2.74977C7.67955 3.28907 7.99683 3.76419 8.44787 4.08437C8.8989 4.40456 9.45208 4.54736 10.0017 4.48552C10.5514 4.42367 11.059 4.1615 11.4276 3.7491C11.7962 3.33669 12 2.80294 12 2.24981C12 1.69669 11.7962 1.16294 11.4276 0.750533C11.059 0.338125 10.5514 0.0759596 10.0017 0.014113C9.45209 -0.0477336 8.8989 0.0950739 8.44787 0.415257C7.99683 0.735441 7.67955 1.21056 7.55663 1.74986L7.49982 1.74986C7.2372 1.74985 6.97715 1.80157 6.73451 1.90207C6.49188 2.00257 6.27141 2.14987 6.08571 2.33558C5.90001 2.52128 5.7527 2.74174 5.6522 2.98438C5.55171 3.22701 5.49998 3.48706 5.49999 3.74969L5.50002 5.49963L4.44336 5.49957C4.32045 4.96027 4.00318 4.48515 3.55215 4.16496C3.10111 3.84478 2.54794 3.70196 1.99828 3.7638C1.44862 3.82564 0.940999 4.0878 0.572388 4.50021C0.203777 4.91261 6.43765e-06 5.44635 -2.62245e-07 5.99948C-6.96214e-06 6.5526 0.20375 7.08635 0.572352 7.49876C0.940953 7.91117 1.44856 8.17334 1.99822 8.2352C2.54788 8.29705 3.10106 8.15425 3.5521 7.83407C4.00314 7.5139 4.32043 7.03878 4.44335 6.49949L5.50005 6.49955L5.50008 8.24931C5.5007 8.77951 5.71159 9.28781 6.0865 9.66272C6.46141 10.0376 6.96971 10.2485 7.49991 10.2491L7.55663 10.2491C7.67047 10.7458 7.9493 11.1892 8.34761 11.5071C8.74592 11.8249 9.24019 11.9983 9.74975 11.999ZM2.25024 7.24939C2.00303 7.24939 1.76138 7.17609 1.55583 7.03875C1.35029 6.90141 1.19009 6.7062 1.09548 6.47781C1.00088 6.24942 0.976129 5.99811 1.02436 5.75566C1.07258 5.5132 1.19163 5.29049 1.36643 5.11569C1.54123 4.94089 1.76394 4.82185 2.00639 4.77362C2.24885 4.72539 2.50016 4.75014 2.72855 4.84475C2.95694 4.93935 3.15214 5.09955 3.28948 5.30509C3.42682 5.51064 3.50013 5.75229 3.50013 5.9995C3.49976 6.33088 3.36796 6.64858 3.13364 6.8829C2.89932 7.11722 2.58161 7.24902 2.25024 7.24939Z" fill="#0097AC"/>
</svg>
