<svg width="10" height="10" viewBox="0 0 10 10" fill="none" xmlns="http://www.w3.org/2000/svg">
<path d="M6.54465 5.2949L4.35776 7.4824C4.29949 7.54069 4.22524 7.58038 4.14441 7.59647C4.06358 7.61256 3.97979 7.60431 3.90365 7.57278C3.8275 7.54125 3.76242 7.48784 3.71663 7.41931C3.67083 7.35079 3.64639 7.27022 3.64639 7.18781V5.41697H0.416667C0.30616 5.41697 0.200179 5.37307 0.122039 5.29493C0.0438987 5.21679 0 5.11081 0 5.00031C0 4.8898 0.0438987 4.78382 0.122039 4.70568C0.200179 4.62754 0.30616 4.58364 0.416667 4.58364H3.64639V2.81281C3.64639 2.73039 3.67083 2.64982 3.71662 2.5813C3.76242 2.51277 3.8275 2.45936 3.90365 2.42783C3.97979 2.39629 4.06358 2.38805 4.14441 2.40414C4.22524 2.42022 4.29949 2.45992 4.35776 2.51821L6.54465 4.70571C6.62277 4.78384 6.66666 4.88981 6.66666 5.00031C6.66666 5.1108 6.62277 5.21677 6.54465 5.2949ZM9.16667 0.000305176H6.25C6.13949 0.000305176 6.03351 0.0442039 5.95537 0.122344C5.87723 0.200484 5.83333 0.306465 5.83333 0.416972C5.83333 0.527479 5.87723 0.633459 5.95537 0.7116C6.03351 0.78974 6.13949 0.833638 6.25 0.833638H9.16667V9.16697H6.25C6.13949 9.16697 6.03351 9.21087 5.95537 9.28901C5.87723 9.36715 5.83333 9.47313 5.83333 9.58364C5.83333 9.69415 5.87723 9.80013 5.95537 9.87827C6.03351 9.95641 6.13949 10.0003 6.25 10.0003H9.16667C9.3876 10.0001 9.59942 9.91217 9.75564 9.75595C9.91187 9.59972 9.99975 9.38791 10 9.16697V0.833638C9.99975 0.612702 9.91187 0.400888 9.75564 0.244662C9.59942 0.0884364 9.3876 0.000557852 9.16667 0.000305176Z" fill="white"/>
</svg>
