<svg width="11" height="10" viewBox="0 0 11 10" fill="none" xmlns="http://www.w3.org/2000/svg">
<path fill-rule="evenodd" clip-rule="evenodd" d="M8.56435 -0.000179917H6.61791V2.39643C6.61791 2.50233 6.57689 2.60391 6.50389 2.67882C6.43088 2.7537 6.33187 2.79579 6.22862 2.79579H3.11431C3.01107 2.79579 2.91205 2.7537 2.83904 2.67882C2.76604 2.60391 2.72502 2.50233 2.72502 2.39643C2.72502 2.29052 2.76604 2.18894 2.83904 2.11404C2.91205 2.03916 3.01107 1.99707 3.11431 1.99707H5.83933V-0.000179917H2.88626C2.78398 -0.000477484 2.68265 0.0200547 2.58815 0.0602263C2.49365 0.100371 2.40786 0.15937 2.33574 0.233762L0.228006 2.39594C0.155489 2.46995 0.0979998 2.55798 0.0588637 2.65493C0.0197276 2.75186 -0.000280505 2.85582 2.97054e-06 2.96075V8.78561C0.000240299 8.99737 0.0823427 9.20036 0.228303 9.35009C0.374263 9.49982 0.572162 9.58406 0.778579 9.5843H6.60255C6.27098 9.11296 6.07561 8.53408 6.07561 7.9084C6.07561 6.32499 7.32687 5.04137 8.87039 5.04137C9.03145 5.04137 9.18933 5.05536 9.34293 5.08219V0.798518C9.3427 0.586785 9.26059 0.383763 9.11463 0.234033C8.96867 0.0843022 8.77077 6.35474e-05 8.56435 -0.000179917ZM4.67147 7.18821C4.40199 7.18821 4.13856 7.10622 3.9145 6.95265C3.69043 6.79905 3.5158 6.58077 3.41267 6.32535C3.30955 6.06995 3.28256 5.78891 3.33514 5.51778C3.38771 5.24664 3.51748 4.9976 3.70803 4.80213C3.89858 4.60665 4.14135 4.47353 4.40566 4.41959C4.66996 4.36565 4.94391 4.39332 5.19288 4.49912C5.44184 4.60492 5.65464 4.78406 5.80435 5.01391C5.95407 5.24377 6.03398 5.51401 6.03398 5.79045C6.03357 6.16103 5.88989 6.51633 5.63446 6.77835C5.37903 7.0404 5.0327 7.18778 4.67147 7.18821ZM10.9091 7.9084C10.9091 9.06345 9.99633 9.99982 8.87039 9.99982C7.74444 9.99982 6.83168 9.06345 6.83168 7.9084C6.83168 6.75336 7.74444 5.81699 8.87039 5.81699C9.99633 5.81699 10.9091 6.75336 10.9091 7.9084ZM9.09991 7.00813C9.09991 6.88575 9.00319 6.78652 8.88389 6.78652C8.76458 6.78652 8.66787 6.88575 8.66787 7.00813V7.70065H7.9928C7.87349 7.70065 7.77678 7.79987 7.77678 7.92226C7.77678 8.04464 7.87349 8.14386 7.9928 8.14386H8.66787V8.83638C8.66787 8.95876 8.76458 9.05799 8.88389 9.05799C9.00319 9.05799 9.09991 8.95876 9.09991 8.83638V8.14386H9.77498C9.89428 8.14386 9.991 8.04464 9.991 7.92226C9.991 7.79987 9.89428 7.70065 9.77498 7.70065H9.09991V7.00813Z" fill="white"/>
</svg>
