<svg width="10" height="10" viewBox="0 0 10 10" fill="none" xmlns="http://www.w3.org/2000/svg">
<path d="M9.16667 0.000308409H7.08333V2.50082C7.08333 2.61132 7.03943 2.7173 6.96129 2.79544C6.88315 2.87358 6.77717 2.91748 6.66667 2.91748H3.33334C3.22283 2.91748 3.11685 2.87358 3.03871 2.79544C2.96057 2.7173 2.91667 2.61132 2.91667 2.50082C2.91667 2.39031 2.96057 2.28433 3.03871 2.20619C3.11685 2.12805 3.22283 2.08415 3.33334 2.08415H6.25V0.000308409H3.08925C2.97977 2.41451e-06 2.87131 0.0214188 2.77017 0.0633175C2.66902 0.105216 2.5772 0.166765 2.5 0.244398L0.244042 2.50031C0.166426 2.57752 0.104893 2.66936 0.0630042 2.77051C0.0211152 2.87167 -0.000298206 2.98012 3.13677e-06 3.0896V9.16697C0.000255813 9.38791 0.0881343 9.59972 0.24436 9.75595C0.400585 9.91217 0.6124 10.0001 0.833336 10.0003H9.16667C9.3876 10.0001 9.59942 9.91217 9.75564 9.75595C9.91187 9.59972 9.99975 9.38791 10 9.16697V0.833642C9.99975 0.612705 9.91187 0.400891 9.75564 0.244665C9.59942 0.0884396 9.3876 0.000561085 9.16667 0.000308409ZM5 7.50033C4.71157 7.50033 4.42962 7.41479 4.1898 7.25455C3.94997 7.09431 3.76306 6.86655 3.65268 6.60007C3.5423 6.3336 3.51342 6.04038 3.56969 5.75749C3.62596 5.4746 3.76485 5.21475 3.9688 5.0108C4.17276 4.80684 4.43261 4.66795 4.71549 4.61168C4.99838 4.55541 5.29161 4.58429 5.55808 4.69467C5.82456 4.80505 6.05232 4.99196 6.21256 5.23179C6.3728 5.47161 6.45833 5.75356 6.45833 6.04199C6.4579 6.42863 6.30411 6.79931 6.03072 7.07271C5.75732 7.3461 5.38664 7.49989 5 7.50033Z" fill="white"/>
</svg>
