<svg width="12" height="12" viewBox="0 0 12 12" fill="none" xmlns="http://www.w3.org/2000/svg">
<path d="M11.7066 2.99987L8.99965 0.29302C8.90703 0.199828 8.79683 0.125943 8.67545 0.0756449C8.55407 0.025347 8.42392 -0.000363289 8.29253 3.87777e-06H0.999954C0.734843 0.000307075 0.480677 0.105756 0.293215 0.293219C0.105753 0.480681 0.000303197 0.734847 0 0.999958V10.9995C0.000303197 11.2646 0.105753 11.5188 0.293215 11.7062C0.480677 11.8937 0.734843 11.9991 0.999954 11.9995H2.989C2.99264 11.9995 2.9962 12 2.99986 12C3.00352 12 3.00708 11.9995 3.01073 11.9995H8.98872C8.99237 11.9995 8.99592 12 8.99959 12C9.00325 12 9.0068 11.9995 9.01045 11.9995H10.9995C11.2646 11.9991 11.5188 11.8937 11.7062 11.7062C11.8937 11.5188 11.9991 11.2646 11.9994 10.9995V3.70699C11.9998 3.57561 11.9741 3.44548 11.9238 3.3241C11.8736 3.20272 11.7997 3.09252 11.7066 2.99987ZM10.9995 3.70699V10.9995H9.49956V7.50021C9.49926 7.2351 9.39381 6.98093 9.20635 6.79347C9.01889 6.60601 8.76472 6.50056 8.49961 6.50025H3.49984C3.23473 6.50056 2.98056 6.60601 2.7931 6.79347C2.60564 6.98093 2.50019 7.2351 2.49988 7.50021V10.9995H0.999954V0.999958L8.29246 1.00002L10.9995 3.70699V3.70692L11.4995 3.70699H10.9995ZM7.99963 2.5005C7.99962 2.6331 7.94695 2.76027 7.85318 2.85403C7.75942 2.94779 7.63225 3.00047 7.49965 3.00048H3.99982C3.86721 3.00048 3.74004 2.9478 3.64628 2.85404C3.55251 2.76027 3.49984 2.6331 3.49984 2.5005C3.49984 2.3679 3.55251 2.24073 3.64628 2.14696C3.74004 2.0532 3.86721 2.00052 3.99982 2.00052H7.49965C7.63225 2.00053 7.75942 2.05321 7.85318 2.14697C7.94695 2.24073 7.99962 2.3679 7.99963 2.5005Z" fill="#0981D8"/>
</svg>
