<svg width="12" height="12" viewBox="0 0 12 12" fill="none" xmlns="http://www.w3.org/2000/svg">
<path fill-rule="evenodd" clip-rule="evenodd" d="M1.1613 5.56035C1.1613 3.35277 3.0244 1.56318 5.32265 1.56318C7.6209 1.56318 9.484 3.35277 9.484 5.56035C9.484 6.65968 9.02198 7.65536 8.27428 8.378C8.27115 8.38088 8.26804 8.3838 8.26496 8.38676C8.26189 8.38971 8.25885 8.39269 8.25586 8.39569C7.50355 9.1138 6.46705 9.55753 5.32265 9.55753C3.0244 9.55753 1.1613 7.76793 1.1613 5.56035ZM8.65332 9.54857C7.74147 10.2521 6.58323 10.673 5.32265 10.673C2.38303 10.673 0 8.384 0 5.56035C0 2.73671 2.38303 0.447693 5.32265 0.447693C8.26227 0.447693 10.6453 2.73671 10.6453 5.56035C10.6453 6.7713 10.207 7.88391 9.4745 8.75982L11.8297 11.0221C12.0565 11.2399 12.0565 11.5931 11.8297 11.8109C11.603 12.0287 11.2353 12.0287 11.0086 11.8109L8.65332 9.54857Z" fill="white"/>
</svg>
