<svg width="8" height="5" viewBox="0 0 8 5" fill="none" xmlns="http://www.w3.org/2000/svg">
<g style="mix-blend-mode:luminosity">
<path d="M4 -3.49691e-07C3.76957 0.00454913 3.58261 0.0909916 3.4 0.286624L0.204348 3.71247C0.0652181 3.85805 5.61953e-07 4.02639 5.43657e-07 4.23567C5.07065e-07 4.65423 0.326087 5 0.721739 5C0.917392 5 1.10435 4.91356 1.25652 4.75432L3.99565 1.78344L6.74348 4.75432C6.8913 4.90901 7.07826 5 7.27826 5C7.67391 5 8 4.65423 8 4.23567C8 4.03094 7.93043 3.85805 7.79565 3.70792L4.6 0.286624C4.4087 0.0909917 4.22609 -3.29926e-07 4 -3.49691e-07Z" fill="#8E8E8F" fill-opacity="0.5"/>
</g>
</svg>
