<svg width="8" height="5" viewBox="0 0 8 5" fill="none" xmlns="http://www.w3.org/2000/svg">
<g style="mix-blend-mode:luminosity">
<path d="M4 5C4.23043 4.99545 4.41739 4.90901 4.6 4.71338L7.79565 1.28753C7.93478 1.14195 8 0.973612 8 0.764331C8 0.345769 7.67391 0 7.27826 0C7.08261 0 6.89565 0.0864422 6.74348 0.245678L4.00435 3.21656L1.25652 0.245678C1.1087 0.0909918 0.921739 0 0.721739 0C0.326087 0 0 0.345769 0 0.764331C0 0.969063 0.0695652 1.14195 0.204348 1.29208L3.4 4.71338C3.5913 4.90901 3.77391 5 4 5Z" fill="#8E8E8F" fill-opacity="0.5"/>
</g>
</svg>
