<svg width="12" height="12" viewBox="0 0 12 12" fill="none" xmlns="http://www.w3.org/2000/svg">
<path d="M11.5714 6.85714H10.7143V5.14286H11.5714C11.6851 5.14286 11.7941 5.0977 11.8745 5.01733C11.9548 4.93696 12 4.82795 12 4.71429C12 4.60062 11.9548 4.49161 11.8745 4.41124C11.7941 4.33087 11.6851 4.28571 11.5714 4.28571H10.7143V2.14286C10.714 1.91561 10.6236 1.69774 10.4629 1.53705C10.3023 1.37636 10.0844 1.28597 9.85714 1.28571H7.71429V0.428571C7.71429 0.314907 7.66913 0.205898 7.58876 0.125526C7.50839 0.0451529 7.39938 0 7.28571 0C7.17205 0 7.06304 0.0451529 6.98267 0.125526C6.9023 0.205898 6.85714 0.314907 6.85714 0.428571V1.28571H5.14286V0.428571C5.14286 0.314907 5.0977 0.205898 5.01733 0.125526C4.93696 0.0451529 4.82795 0 4.71429 0C4.60062 0 4.49161 0.0451529 4.41124 0.125526C4.33087 0.205898 4.28571 0.314907 4.28571 0.428571V1.28571H2.14286C1.91561 1.28597 1.69774 1.37636 1.53705 1.53705C1.37636 1.69774 1.28597 1.91561 1.28571 2.14286V4.28571H0.428571C0.314907 4.28571 0.205898 4.33087 0.125526 4.41124C0.0451529 4.49161 0 4.60062 0 4.71429C0 4.82795 0.0451529 4.93696 0.125526 5.01733C0.205898 5.0977 0.314907 5.14286 0.428571 5.14286H1.28571V6.85714H0.428571C0.314907 6.85714 0.205898 6.9023 0.125526 6.98267C0.0451529 7.06304 0 7.17205 0 7.28571C0 7.39938 0.0451529 7.50839 0.125526 7.58876C0.205898 7.66913 0.314907 7.71429 0.428571 7.71429H1.28571V9.85714C1.28597 10.0844 1.37636 10.3023 1.53705 10.4629C1.69774 10.6236 1.91561 10.714 2.14286 10.7143H4.28571V11.5714C4.28571 11.6851 4.33087 11.7941 4.41124 11.8745C4.49161 11.9548 4.60062 12 4.71429 12C4.82795 12 4.93696 11.9548 5.01733 11.8745C5.0977 11.7941 5.14286 11.6851 5.14286 11.5714V10.7143H6.85714V11.5714C6.85714 11.6851 6.9023 11.7941 6.98267 11.8745C7.06304 11.9548 7.17205 12 7.28571 12C7.39938 12 7.50839 11.9548 7.58876 11.8745C7.66913 11.7941 7.71429 11.6851 7.71429 11.5714V10.7143H9.85714C10.0844 10.714 10.3023 10.6236 10.4629 10.4629C10.6236 10.3023 10.714 10.0844 10.7143 9.85714V7.71429H11.5714C11.6851 7.71429 11.7941 7.66913 11.8745 7.58876C11.9548 7.50839 12 7.39938 12 7.28571C12 7.17205 11.9548 7.06304 11.8745 6.98267C11.7941 6.9023 11.6851 6.85714 11.5714 6.85714ZM7.92857 7.5C7.92857 7.61366 7.88341 7.72267 7.80304 7.80304C7.72267 7.88341 7.61366 7.92857 7.5 7.92857H4.5C4.38634 7.92857 4.27733 7.88341 4.19696 7.80304C4.11659 7.72267 4.07143 7.61366 4.07143 7.5V4.5C4.07143 4.38634 4.11659 4.27733 4.19696 4.19696C4.27733 4.11659 4.38634 4.07143 4.5 4.07143H7.5C7.61366 4.07143 7.72267 4.11659 7.80304 4.19696C7.88341 4.27733 7.92857 4.38634 7.92857 4.5V7.5Z" fill="#7F8FA4"/>
</svg>
