<svg width="12" height="12" viewBox="0 0 12 12" fill="none" xmlns="http://www.w3.org/2000/svg">
<path d="M11.8619 4.46237C11.849 4.40282 11.8235 4.34671 11.7872 4.29779C11.7508 4.24887 11.7044 4.20827 11.6512 4.1787L10.3779 3.47184C10.3074 3.33524 10.2304 3.20159 10.1476 3.07227L10.1721 1.61493C10.1731 1.55397 10.1611 1.4935 10.1369 1.43755C10.1127 1.3816 10.0768 1.33146 10.0317 1.29049C9.39776 0.713896 8.64678 0.280999 7.83011 0.0213874C7.77208 0.00281538 7.71074 -0.00316423 7.65021 0.00384767C7.58968 0.0108596 7.53134 0.0307017 7.47908 0.0620498L6.23028 0.81137C6.07665 0.804048 5.92234 0.803917 5.7691 0.811004L4.51925 0.0610563C4.46697 0.0296952 4.4086 0.00984838 4.34804 0.0028408C4.28748 -0.00416678 4.22612 0.00182624 4.16806 0.0204196C3.35175 0.281173 2.60137 0.715093 1.96818 1.29252C1.92308 1.3335 1.88723 1.38363 1.86304 1.43957C1.83885 1.4955 1.82686 1.55595 1.82789 1.61689L1.85239 3.07303C1.76934 3.20234 1.69207 3.33592 1.62149 3.47223L0.347112 4.17969C0.293812 4.20928 0.247441 4.2499 0.211094 4.29884C0.174748 4.34778 0.149264 4.40392 0.136345 4.46349C-0.0460286 5.30081 -0.0454398 6.16763 0.138071 7.0047C0.151011 7.06425 0.176504 7.12036 0.212849 7.16927C0.249194 7.21819 0.295555 7.25879 0.348838 7.28837L1.62215 7.99522C1.69262 8.13183 1.76963 8.26548 1.85242 8.39479L1.82789 9.85214C1.82687 9.91309 1.83886 9.97356 1.86307 10.0295C1.88728 10.0855 1.92315 10.1356 1.96829 10.1766C2.60224 10.7532 3.35322 11.1861 4.16989 11.4457C4.22792 11.4642 4.28926 11.4702 4.34979 11.4632C4.41032 11.4562 4.46866 11.4364 4.52092 11.405L5.76972 10.6557C5.92333 10.663 6.07761 10.6631 6.2309 10.6561L7.48075 11.406C7.53303 11.4374 7.5914 11.4572 7.65196 11.4642C7.71252 11.4712 7.77388 11.4652 7.83194 11.4466C8.64825 11.1859 9.39863 10.752 10.0318 10.1745C10.0769 10.1336 10.1128 10.0834 10.137 10.0275C10.1612 9.97156 10.1731 9.91111 10.1721 9.85018L10.1476 8.39403C10.2307 8.26472 10.3079 8.13115 10.3785 7.99483L11.6529 7.28737C11.7062 7.25778 11.7526 7.21716 11.7889 7.16822C11.8253 7.11928 11.8507 7.06315 11.8637 7.00357C12.046 6.16626 12.0454 5.29943 11.8619 4.46237ZM8.3564 5.73353C8.3564 6.19959 8.2182 6.65517 7.95928 7.04268C7.70035 7.43019 7.33233 7.73222 6.90176 7.91057C6.47118 8.08892 5.99739 8.13558 5.54029 8.04466C5.08319 7.95374 4.66332 7.72931 4.33377 7.39976C4.00422 7.07021 3.7798 6.65034 3.68888 6.19324C3.59795 5.73615 3.64462 5.26235 3.82297 4.83178C4.00132 4.4012 4.30335 4.03318 4.69085 3.77426C5.07836 3.51533 5.53395 3.37713 6 3.37713C6.62474 3.37784 7.22369 3.62633 7.66545 4.06808C8.10721 4.50984 8.3557 5.10879 8.3564 5.73353Z" fill="#7F8FA4"/>
</svg>
