<svg width="12" height="12" viewBox="0 0 12 12" fill="none" xmlns="http://www.w3.org/2000/svg">
<path d="M10.1538 0.923077H8.76923V0.461538C8.76923 0.339131 8.72061 0.221737 8.63405 0.135181C8.54749 0.0486262 8.4301 0 8.30769 0C8.18529 0 8.06789 0.0486262 7.98134 0.135181C7.89478 0.221737 7.84615 0.339131 7.84615 0.461538V0.923077H3.23077V0.461538C3.23077 0.339131 3.18214 0.221737 3.09559 0.135181C3.00903 0.0486262 2.89164 0 2.76923 0C2.64682 0 2.52943 0.0486262 2.44287 0.135181C2.35632 0.221737 2.30769 0.339131 2.30769 0.461538V0.923077H0.923077C0.678336 0.923319 0.443688 1.02065 0.27063 1.19371C0.0975718 1.36677 0.000241782 1.60141 0 1.84615V11.0769C0.000241782 11.3217 0.0975718 11.5563 0.27063 11.7294C0.443688 11.9024 0.678336 11.9998 0.923077 12H10.1538C10.3986 11.9998 10.6332 11.9024 10.8063 11.7294C10.9794 11.5563 11.0767 11.3217 11.0769 11.0769V1.84615C11.0767 1.60141 10.9794 1.36677 10.8063 1.19371C10.6332 1.02065 10.3986 0.923319 10.1538 0.923077ZM7.93202 6.79721L5.23972 9.33567C5.15394 9.41657 5.04046 9.46156 4.92256 9.46143C4.80466 9.46129 4.69128 9.41603 4.60569 9.33494L3.14415 7.95033C3.10004 7.90867 3.06458 7.85872 3.03979 7.80335C3.015 7.74797 3.00137 7.68825 2.99969 7.62761C2.998 7.56696 3.00829 7.50658 3.02996 7.44991C3.05163 7.39324 3.08427 7.3414 3.12599 7.29736C3.16772 7.25331 3.21772 7.21793 3.27313 7.19323C3.32855 7.16853 3.38829 7.15499 3.44894 7.1534C3.50958 7.15181 3.56995 7.16219 3.62659 7.18395C3.68322 7.20571 3.73501 7.23842 3.77899 7.28022L4.92385 8.36482L7.29881 6.12564C7.34291 6.08406 7.39476 6.05158 7.45141 6.03004C7.50806 6.0085 7.5684 5.99833 7.62898 6.00012C7.68956 6.0019 7.74919 6.01559 7.80448 6.04042C7.85977 6.06525 7.90962 6.10073 7.9512 6.14482C7.99278 6.18892 8.02526 6.24077 8.0468 6.29742C8.06834 6.35407 8.0785 6.41441 8.07672 6.47499C8.07494 6.53557 8.06124 6.59521 8.03642 6.65049C8.01159 6.70578 7.97611 6.75564 7.93202 6.79721H7.93202ZM10.1538 3.69231H0.923077V1.84615H2.30769V2.30769C2.30769 2.4301 2.35632 2.54749 2.44287 2.63405C2.52943 2.7206 2.64682 2.76923 2.76923 2.76923C2.89164 2.76923 3.00903 2.7206 3.09559 2.63405C3.18214 2.54749 3.23077 2.4301 3.23077 2.30769V1.84615H7.84615V2.30769C7.84615 2.4301 7.89478 2.54749 7.98134 2.63405C8.06789 2.7206 8.18529 2.76923 8.30769 2.76923C8.4301 2.76923 8.54749 2.7206 8.63405 2.63405C8.72061 2.54749 8.76923 2.4301 8.76923 2.30769V1.84615H10.1538V3.69231Z" fill="#7F8FA4"/>
</svg>
