<svg width="12" height="12" viewBox="0 0 12 12" fill="none" xmlns="http://www.w3.org/2000/svg">
<path d="M11.52 5.76V11.04C11.5197 11.2945 11.4185 11.5385 11.2385 11.7185C11.0585 11.8985 10.8145 11.9997 10.56 12H0.959999C0.705481 11.9997 0.461471 11.8985 0.281499 11.7185C0.101527 11.5385 0.000291083 11.2945 0 11.04V1.44001C0.000291083 1.18549 0.101527 0.941478 0.281499 0.761506C0.461471 0.581534 0.705481 0.480298 0.959999 0.480007H6.24C6.3673 0.480007 6.48939 0.530578 6.57941 0.620596C6.66943 0.710613 6.72 0.832703 6.72 0.960007C6.72 1.08731 6.66943 1.2094 6.57941 1.29942C6.48939 1.38944 6.3673 1.44001 6.24 1.44001H0.959999V11.04H10.56V5.76C10.56 5.6327 10.6106 5.51061 10.7006 5.42059C10.7906 5.33058 10.9127 5.28 11.04 5.28C11.1673 5.28 11.2894 5.33058 11.3794 5.42059C11.4694 5.51061 11.52 5.6327 11.52 5.76ZM11.8594 2.73941L6.09943 8.49941C6.00941 8.58943 5.88731 8.64 5.76 8.64H3.84C3.7127 8.64 3.59061 8.58942 3.50059 8.49941C3.41058 8.40939 3.36 8.2873 3.36 8.16V6.24C3.36 6.11271 3.41056 5.99062 3.50056 5.9006L9.26056 0.140603C9.30513 0.0960263 9.35805 0.0606662 9.41629 0.0365415C9.47453 0.0124168 9.53695 0 9.59999 0C9.66303 0 9.72546 0.0124168 9.7837 0.0365415C9.84194 0.0606662 9.89485 0.0960263 9.93943 0.140603L11.8594 2.0606C11.9494 2.15062 12 2.27271 12 2.40001C12 2.52731 11.9494 2.64939 11.8594 2.73941ZM10.8412 2.40001L9.59999 1.15882L8.83883 1.92001L10.08 3.1612L10.8412 2.40001Z" fill="#7F8FA4"/>
</svg>
