<svg width="10" height="13" viewBox="0 0 10 13" fill="none" xmlns="http://www.w3.org/2000/svg">
<path fill-rule="evenodd" clip-rule="evenodd" d="M4.61559 0.0210289C5.15819 0.0723732 5.52981 0.166356 6.00047 0.371303C6.79577 0.717598 7.49815 1.34053 7.95445 2.10428C8.23481 2.57352 8.43156 3.13917 8.50923 3.69929C8.55791 4.05028 8.55817 4.52056 8.50988 4.86705C8.45855 5.23542 8.34619 5.64377 8.20551 5.97319C8.13497 6.13837 7.98964 6.41088 7.9721 6.41088C7.96206 6.41088 7.94506 6.40029 7.93432 6.38734C7.89763 6.34315 7.69232 6.2172 7.57831 6.16896C7.51573 6.14247 7.46267 6.11917 7.46041 6.11718C7.45817 6.11518 7.49872 6.02965 7.55056 5.9271C7.66443 5.7018 7.77898 5.39456 7.82986 5.17798C7.9233 4.78019 7.92547 4.75969 7.92526 4.27816C7.92507 3.82631 7.92486 3.82361 7.87274 3.57787C7.75121 3.00501 7.53186 2.51696 7.19565 2.07138C6.68697 1.39722 5.93617 0.907155 5.11694 0.714511C4.78545 0.636571 4.69037 0.626624 4.2734 0.626306C3.85813 0.626003 3.7733 0.634821 3.42987 0.714081C2.03515 1.03591 0.939003 2.1759 0.6681 3.58626C0.499409 4.46443 0.651723 5.35802 1.10343 6.14031C1.29701 6.47556 1.61383 6.84963 1.92171 7.10641C2.08939 7.24628 2.40322 7.4538 2.59954 7.55465C2.741 7.6273 2.76141 7.64293 2.76141 7.67857C2.76141 7.71498 2.70342 7.80594 2.63496 7.87691C2.62135 7.89103 2.56781 7.95727 2.51597 8.02413C2.46415 8.09099 2.41997 8.1457 2.4178 8.1457C2.38635 8.1457 1.98037 7.90846 1.82238 7.79773C1.48693 7.56269 1.15395 7.24536 0.874162 6.89413C0.80087 6.8021 0.611249 6.51355 0.540917 6.387C0.279453 5.91658 0.109202 5.41283 0.0295914 4.87415C-0.0098638 4.60709 -0.0098638 3.96515 0.0295914 3.6981C0.223207 2.3879 0.972458 1.26343 2.09294 0.601413C2.65089 0.271766 3.2197 0.089451 3.89938 0.0224297C4.19901 -0.0071259 4.31572 -0.00734892 4.61559 0.0210289ZM4.62931 1.86689C5.38009 1.98005 6.03162 2.43114 6.41097 3.1004C6.49439 3.24757 6.58589 3.48105 6.64175 3.68928L6.69938 3.90414L6.69973 4.27816C6.70007 4.64983 6.69975 4.65349 6.64737 4.85909C6.56001 5.20204 6.3974 5.54156 6.20349 5.78585L6.17534 5.82132L6.07255 5.78924C6.01602 5.77159 5.91755 5.74939 5.85371 5.73988L5.73766 5.72263V5.55497C5.73766 5.40441 5.74141 5.38229 5.77456 5.33806C5.88644 5.18875 6.00456 4.92245 6.05785 4.69947C6.11024 4.48013 6.11121 4.08776 6.05987 3.87231C5.95596 3.43627 5.69904 3.05176 5.34138 2.79698C4.91105 2.49044 4.38356 2.38202 3.87171 2.4949C3.35766 2.60828 2.90805 2.94934 2.65394 3.41871C2.57054 3.57279 2.49644 3.78536 2.46669 3.95603C2.43626 4.1305 2.4365 4.4431 2.46719 4.61908C2.49953 4.80453 2.59348 5.05342 2.6945 5.22127L2.77732 5.35889V5.77253C2.77732 6.01387 2.77108 6.19003 2.76234 6.19544C2.7541 6.20053 2.70939 6.17098 2.663 6.12976C2.28014 5.78973 2.00684 5.33729 1.89256 4.85436C1.70603 4.06602 1.91857 3.23686 2.45845 2.6468C2.66841 2.41731 2.89082 2.24777 3.16887 2.1052C3.40257 1.98537 3.74643 1.87983 3.98692 1.8541C4.13352 1.83842 4.48712 1.84547 4.62931 1.86689ZM4.40751 3.61769C4.66834 3.67295 4.87785 3.89101 4.92738 4.15879C4.93972 4.22553 4.94336 4.66027 4.93948 5.6025L4.93391 6.95069L4.97615 6.86207C5.03224 6.74442 5.12 6.65584 5.23527 6.6005C5.36613 6.53768 5.4816 6.51705 5.65238 6.52598C5.825 6.535 5.96145 6.58991 6.07784 6.69722C6.20467 6.81412 6.29471 6.99709 6.29471 7.13794C6.29471 7.20215 6.3146 7.20604 6.34097 7.14698C6.41996 6.97012 6.56676 6.88315 6.83584 6.85377C6.97813 6.83822 7.02161 6.83934 7.12858 6.86137C7.4687 6.93137 7.67545 7.21228 7.68064 7.61147L7.68189 7.70801L7.70538 7.64174C7.73769 7.55054 7.85703 7.44276 7.97463 7.39855C8.10952 7.34782 8.33715 7.32342 8.46081 7.34642C8.67354 7.38599 8.8737 7.52858 8.96249 7.70381C9.0443 7.86523 9.05242 7.94772 9.04274 8.51972C9.03785 8.80859 9.02627 9.13804 9.01699 9.25184C8.99356 9.53898 8.926 10.1173 8.89797 10.2705C8.82886 10.6482 8.80567 10.7579 8.75266 10.9581C8.64863 11.351 8.54606 11.6349 8.41265 11.899C8.31466 12.093 8.24475 12.2035 8.129 12.3473C8.10931 12.3718 8.09319 12.397 8.09319 12.4032C8.09319 12.4257 7.9078 12.6052 7.79875 12.6882C7.59372 12.8445 7.36181 12.9457 7.12233 12.9835C6.97991 13.0059 5.05216 13.0053 4.84973 12.9828C3.82248 12.8683 3.11289 12.1381 2.76855 10.8413C2.70553 10.6039 2.64436 10.2697 2.61898 10.0238C2.60947 9.93184 2.59833 9.8258 2.59421 9.78811C2.5761 9.62276 2.64794 9.34344 2.77288 9.09348C2.91157 8.81602 3.10076 8.55222 3.43321 8.17274C3.4777 8.12197 3.52724 8.06371 3.5433 8.04329C3.5712 8.00782 3.57268 7.91991 3.57679 6.05826L3.58107 4.11036L3.63561 3.99959C3.73534 3.797 3.90066 3.66171 4.10185 3.61802C4.23233 3.58968 4.27509 3.58963 4.40751 3.61769Z" fill="#7F8FA4"/>
</svg>
