<svg width="13" height="10" viewBox="0 0 13 10" fill="none" xmlns="http://www.w3.org/2000/svg">
<path d="M12.5 2.06672e-10H0.5C0.434339 -1.88764e-06 0.36932 0.0129297 0.308656 0.0380564C0.247992 0.0631831 0.192872 0.100013 0.146442 0.146442C0.100013 0.192872 0.0631831 0.247992 0.0380564 0.308656C0.0129297 0.36932 -1.88764e-06 0.434339 2.06672e-10 0.5V9C0.000303211 9.26512 0.105757 9.5193 0.293228 9.70677C0.480699 9.89424 0.734877 9.9997 1 10H12C12.2651 9.9997 12.5193 9.89424 12.7068 9.70677C12.8942 9.5193 12.9997 9.26512 13 9V0.5C13 0.434339 12.9871 0.36932 12.9619 0.308656C12.9368 0.247992 12.9 0.192872 12.8536 0.146442C12.8071 0.100013 12.752 0.0631831 12.6913 0.0380564C12.6307 0.0129297 12.5657 -1.88764e-06 12.5 2.06672e-10ZM1 4H3.5V6H1V4ZM4.5 4H12.0003L12.0004 6H4.5V4ZM1 7H3.5V9H1V7ZM12 9H4.5V7H12.0005L12.0006 8.99997L12 9Z" fill="white"/>
</svg>
