<svg width="12" height="12" viewBox="0 0 12 12" fill="none" xmlns="http://www.w3.org/2000/svg">
<path d="M11.5 4H9V1.5C9 1.43434 8.98707 1.36932 8.96194 1.30866C8.93682 1.24799 8.89999 1.19287 8.85356 1.14644C8.80713 1.10001 8.75201 1.06318 8.69134 1.03806C8.63068 1.01293 8.56566 0.999998 8.5 1H1V0.5C1 0.367392 0.947321 0.240215 0.853553 0.146447C0.759785 0.0526785 0.632608 0 0.5 0C0.367392 0 0.240215 0.0526785 0.146447 0.146447C0.0526785 0.240215 0 0.367392 0 0.5V11.5C0 11.6326 0.0526785 11.7598 0.146447 11.8536C0.240215 11.9473 0.367392 12 0.5 12C0.632608 12 0.759785 11.9473 0.853553 11.8536C0.947321 11.7598 1 11.6326 1 11.5V11H6.5C6.56566 11 6.63068 10.9871 6.69134 10.9619C6.75201 10.9368 6.80713 10.9 6.85356 10.8536C6.89999 10.8071 6.93682 10.752 6.96194 10.6913C6.98707 10.6307 7 10.5657 7 10.5V8H11.5C11.5657 8 11.6307 7.98707 11.6913 7.96194C11.752 7.93682 11.8071 7.89999 11.8536 7.85356C11.9 7.80713 11.9368 7.75201 11.9619 7.69134C11.9871 7.63068 12 7.56566 12 7.5V4.5C12 4.43434 11.9871 4.36932 11.9619 4.30866C11.9368 4.24799 11.9 4.19287 11.8536 4.14644C11.8071 4.10001 11.752 4.06318 11.6913 4.03806C11.6307 4.01293 11.5657 4 11.5 4ZM8 2V4H1V2H8ZM6 10H1V8H6V10Z" fill="white"/>
</svg>
